<?xml version="1.0" encoding="UTF-8" standalone="no"?>
<!-- Created with Inkscape (http://www.inkscape.org/) -->

<svg
   xmlns:dc="http://purl.org/dc/elements/1.1/"
   xmlns:cc="http://creativecommons.org/ns#"
   xmlns:rdf="http://www.w3.org/1999/02/22-rdf-syntax-ns#"
   xmlns:svg="http://www.w3.org/2000/svg"
   xmlns="http://www.w3.org/2000/svg"
   xmlns:sodipodi="http://sodipodi.sourceforge.net/DTD/sodipodi-0.dtd"
   xmlns:inkscape="http://www.inkscape.org/namespaces/inkscape"
   width="745.20953"
   height="296.52856"
   id="svg2"
   version="1.1"
   inkscape:version="0.48.2 r9819"
   sodipodi:docname="systems.svg">
  <defs
     id="defs4" />
  <sodipodi:namedview
     id="base"
     pagecolor="#ffffff"
     bordercolor="#666666"
     borderopacity="1.0"
     inkscape:pageopacity="0.0"
     inkscape:pageshadow="2"
     inkscape:zoom="1.2262903"
     inkscape:cx="352.60477"
     inkscape:cy="123.99602"
     inkscape:document-units="px"
     inkscape:current-layer="layer1"
     showgrid="false"
     inkscape:window-width="1389"
     inkscape:window-height="856"
     inkscape:window-x="0"
     inkscape:window-y="0"
     inkscape:window-maximized="1"
     fit-margin-top="0"
     fit-margin-left="0"
     fit-margin-right="0"
     fit-margin-bottom="0" />
  <metadata
     id="metadata7">
    <rdf:RDF>
      <cc:Work
         rdf:about="">
        <dc:format>image/svg+xml</dc:format>
        <dc:type
           rdf:resource="http://purl.org/dc/dcmitype/StillImage" />
        <dc:title></dc:title>
      </cc:Work>
    </rdf:RDF>
  </metadata>
  <g
     inkscape:label="Layer 1"
     inkscape:groupmode="layer"
     id="layer1"
     transform="translate(-44.89872,-296.27307)">
    <g
       id="g4968">
      <rect
         rx="22.488285"
         ry="22.488285"
         y="371.98727"
         x="52.89872"
         height="183.76868"
         width="213.76866"
         id="rect2985"
         style="fill:none;stroke:#808080;stroke-width:16" />
      <text
         sodipodi:linespacing="125%"
         id="text4674"
         y="325.39417"
         x="47.044155"
         style="font-size:40px;font-style:normal;font-variant:normal;font-weight:normal;font-stretch:normal;line-height:125%;letter-spacing:0px;word-spacing:0px;fill:#000000;fill-opacity:1;stroke:none;font-family:Arial;-inkscape-font-specification:Arial"
         xml:space="preserve"><tspan
           y="325.39417"
           x="47.044155"
           id="tspan4676"
           sodipodi:role="line">A</tspan></text>
      <g
         id="g4884">
        <path
           style="fill:#ff0000;stroke:#000000;stroke-width:2;stroke-linecap:butt;stroke-linejoin:miter;stroke-miterlimit:4;stroke-opacity:1;stroke-dasharray:none"
           d="m 91.771043,453.90039 c 0.276721,-68.29731 97.508807,-68.39321 99.335457,-11.52507 l -11.79311,-4.99063 20.36991,24.82448 15.0094,-24.92633 -8.84482,4.55643 C 204.88993,367.51648 76.36976,367.82696 76.659788,453.63237 z"
           id="path4573"
           inkscape:connector-curvature="0"
           sodipodi:nodetypes="cccccccc" />
        <path
           sodipodi:nodetypes="cccccccc"
           inkscape:connector-curvature="0"
           id="path4591"
           d="M 227.27689,460.74991 C 227.00017,392.4526 129.76808,392.3567 127.94142,449.22484 l 11.79312,-4.99063 -20.36992,24.82448 -15.0094,-24.92633 8.84482,4.55643 c 0.95795,-74.32279 129.47813,-74.01231 129.1881,11.7931 z"
           style="fill:#0000ff;stroke:#000000;stroke-width:2;stroke-linecap:butt;stroke-linejoin:miter;stroke-miterlimit:4;stroke-opacity:1;stroke-dasharray:none" />
        <path
           style="fill:#0000ff;stroke:#000000;stroke-width:2;stroke-linecap:butt;stroke-linejoin:miter;stroke-miterlimit:4;stroke-opacity:1;stroke-dasharray:none"
           d="m 127.20992,474.23356 c 0.27672,68.29731 97.50881,68.39321 99.33547,11.52507 l -11.79312,4.99063 20.36992,-24.82448 15.0094,24.92633 -8.84482,-4.55643 c -0.95795,74.32279 -129.47814,74.01231 -129.18811,-11.7931 z"
           id="path4593"
           inkscape:connector-curvature="0"
           sodipodi:nodetypes="cccccccc" />
        <path
           sodipodi:nodetypes="cccccccc"
           inkscape:connector-curvature="0"
           id="path4575"
           d="M 194.45096,467.73068 C 194.17423,536.028 96.942147,536.1239 95.115499,479.25576 l 11.793111,4.99063 -20.369906,-24.82448 -15.009406,24.92633 8.844821,-4.55643 c 0.957959,74.32278 129.478131,74.0123 129.188101,-11.7931 z"
           style="fill:#ff0000;stroke:#000000;stroke-width:2;stroke-linecap:butt;stroke-linejoin:miter;stroke-miterlimit:4;stroke-opacity:1;stroke-dasharray:none" />
      </g>
    </g>
    <g
       id="g4978">
      <path
         sodipodi:nodetypes="cccccccc"
         inkscape:connector-curvature="0"
         id="path4627"
         d="m 321.01787,355.53576 c 8.41879,6.92515 14.0765,17.11723 14.50418,30.43202 l -11.79311,-4.99062 20.36991,24.82448 15.0094,-24.92633 -8.84482,4.55643 c -0.2229,-17.29381 -7.35232,-30.5468 -18.15845,-39.62212 z"
         style="fill:#ff0000;stroke:#000000;stroke-width:2;stroke-linecap:butt;stroke-linejoin:miter;stroke-miterlimit:4;stroke-opacity:1;stroke-dasharray:none" />
      <path
         style="fill:#ff0000;stroke:#000000;stroke-width:2;stroke-linecap:butt;stroke-linejoin:miter;stroke-miterlimit:4;stroke-opacity:1;stroke-dasharray:none"
         d="m 491.01785,541.53577 c 8.41878,6.92514 14.0765,17.11723 14.50418,30.43202 l -11.79311,-4.99063 20.36991,24.82448 15.0094,-24.92633 -8.84483,4.55643 c -0.22289,-17.29381 -7.35232,-30.54679 -18.15845,-39.62211 z"
         id="path4629"
         inkscape:connector-curvature="0"
         sodipodi:nodetypes="cccccccc" />
      <rect
         rx="20.758417"
         ry="19.028555"
         style="fill:none;stroke:#000000;stroke-width:4;stroke-opacity:1"
         id="rect4611"
         width="213.76866"
         height="183.76868"
         x="312.89871"
         y="371.98727" />
      <text
         xml:space="preserve"
         style="font-size:40px;font-style:normal;font-variant:normal;font-weight:normal;font-stretch:normal;line-height:125%;letter-spacing:0px;word-spacing:0px;fill:#000000;fill-opacity:1;stroke:none;font-family:Arial;-inkscape-font-specification:Arial"
         x="311.04416"
         y="325.39417"
         id="text4678"
         sodipodi:linespacing="125%"><tspan
           sodipodi:role="line"
           id="tspan4680"
           x="311.04416"
           y="325.39417">B</tspan></text>
      <g
         transform="translate(264,0)"
         id="g4948">
        <path
           sodipodi:nodetypes="cccccccc"
           inkscape:connector-curvature="0"
           id="path4950"
           d="m 91.771043,453.90039 c 0.276721,-68.29731 97.508807,-68.39321 99.335457,-11.52507 l -11.79311,-4.99063 20.36991,24.82448 15.0094,-24.92633 -8.84482,4.55643 C 204.88993,367.51648 76.36976,367.82696 76.659788,453.63237 z"
           style="fill:#ff0000;stroke:#000000;stroke-width:2;stroke-linecap:butt;stroke-linejoin:miter;stroke-miterlimit:4;stroke-opacity:1;stroke-dasharray:none" />
        <path
           style="fill:#0000ff;stroke:#000000;stroke-width:2;stroke-linecap:butt;stroke-linejoin:miter;stroke-miterlimit:4;stroke-opacity:1;stroke-dasharray:none"
           d="M 227.27689,460.74991 C 227.00017,392.4526 129.76808,392.3567 127.94142,449.22484 l 11.79312,-4.99063 -20.36992,24.82448 -15.0094,-24.92633 8.84482,4.55643 c 0.95795,-74.32279 129.47813,-74.01231 129.1881,11.7931 z"
           id="path4952"
           inkscape:connector-curvature="0"
           sodipodi:nodetypes="cccccccc" />
        <path
           sodipodi:nodetypes="cccccccc"
           inkscape:connector-curvature="0"
           id="path4954"
           d="m 127.20992,474.23356 c 0.27672,68.29731 97.50881,68.39321 99.33547,11.52507 l -11.79312,4.99063 20.36992,-24.82448 15.0094,24.92633 -8.84482,-4.55643 c -0.95795,74.32279 -129.47814,74.01231 -129.18811,-11.7931 z"
           style="fill:#0000ff;stroke:#000000;stroke-width:2;stroke-linecap:butt;stroke-linejoin:miter;stroke-miterlimit:4;stroke-opacity:1;stroke-dasharray:none" />
        <path
           style="fill:#ff0000;stroke:#000000;stroke-width:2;stroke-linecap:butt;stroke-linejoin:miter;stroke-miterlimit:4;stroke-opacity:1;stroke-dasharray:none"
           d="M 194.45096,467.73068 C 194.17423,536.028 96.942147,536.1239 95.115499,479.25576 l 11.793111,4.99063 -20.369906,-24.82448 -15.009406,24.92633 8.844821,-4.55643 c 0.957959,74.32278 129.478131,74.0123 129.188101,-11.7931 z"
           id="path4956"
           inkscape:connector-curvature="0"
           sodipodi:nodetypes="cccccccc" />
      </g>
    </g>
    <g
       id="g4990">
      <path
         style="fill:#ff0000;stroke:#000000;stroke-width:2;stroke-linecap:butt;stroke-linejoin:miter;stroke-miterlimit:4;stroke-opacity:1;stroke-dasharray:none"
         d="m 581.01787,355.53576 c 8.41879,6.92515 14.0765,17.11723 14.50418,30.43202 l -11.79311,-4.99062 20.36991,24.82448 15.0094,-24.92633 -8.84482,4.55643 c -0.2229,-17.29381 -7.35232,-30.5468 -18.15845,-39.62212 z"
         id="path4635"
         inkscape:connector-curvature="0"
         sodipodi:nodetypes="cccccccc" />
      <path
         sodipodi:nodetypes="cccccccc"
         inkscape:connector-curvature="0"
         id="path4641"
         d="m 751.01785,541.53577 c 8.41878,6.92514 14.0765,17.11723 14.50418,30.43202 l -11.79311,-4.99063 20.36991,24.82448 15.0094,-24.92633 -8.84483,4.55643 c -0.22289,-17.29381 -7.35232,-30.54679 -18.15845,-39.62211 z"
         style="fill:#ff0000;stroke:#000000;stroke-width:2;stroke-linecap:butt;stroke-linejoin:miter;stroke-miterlimit:4;stroke-opacity:1;stroke-dasharray:none" />
      <path
         sodipodi:nodetypes="cccccccc"
         inkscape:connector-curvature="0"
         id="path4651"
         d="m 779.10824,355.53576 c -8.41877,6.92515 -14.07649,17.11723 -14.50417,30.43202 l 11.79311,-4.99062 -20.36991,24.82448 -15.0094,-24.92633 8.84482,4.55643 c 0.2229,-17.29381 7.35233,-30.5468 18.15845,-39.62212 z"
         style="fill:#0000ff;stroke:#000000;stroke-width:2;stroke-linecap:butt;stroke-linejoin:miter;stroke-miterlimit:4;stroke-opacity:1;stroke-dasharray:none" />
      <path
         style="fill:#0000ff;stroke:#000000;stroke-width:2;stroke-linecap:butt;stroke-linejoin:miter;stroke-miterlimit:4;stroke-opacity:1;stroke-dasharray:none"
         d="m 619.10825,541.53574 c -8.41877,6.92515 -14.07649,17.11723 -14.50417,30.43202 l 11.79311,-4.99062 -20.36991,24.82447 -15.00941,-24.92632 8.84483,4.55642 c 0.2229,-17.2938 7.35233,-30.54679 18.15845,-39.62211 z"
         id="path4653"
         inkscape:connector-curvature="0"
         sodipodi:nodetypes="cccccccc" />
      <rect
         rx="17.875311"
         ry="14.992181"
         y="371.98727"
         x="572.89868"
         height="183.76868"
         width="213.76866"
         id="rect4649"
         style="fill:none;stroke:#000000;stroke-width:4;stroke-miterlimit:4;stroke-opacity:1;stroke-dasharray:16, 8;stroke-dashoffset:0" />
      <text
         sodipodi:linespacing="125%"
         id="text4682"
         y="325.39417"
         x="567.04419"
         style="font-size:40px;font-style:normal;font-variant:normal;font-weight:normal;font-stretch:normal;line-height:125%;letter-spacing:0px;word-spacing:0px;fill:#000000;fill-opacity:1;stroke:none;font-family:Arial;-inkscape-font-specification:Arial"
         xml:space="preserve"><tspan
           y="325.39417"
           x="567.04419"
           id="tspan4684"
           sodipodi:role="line">C</tspan></text>
      <g
         id="g4958"
         transform="translate(524,0)">
        <path
           style="fill:#ff0000;stroke:#000000;stroke-width:2;stroke-linecap:butt;stroke-linejoin:miter;stroke-miterlimit:4;stroke-opacity:1;stroke-dasharray:none"
           d="m 91.771043,453.90039 c 0.276721,-68.29731 97.508807,-68.39321 99.335457,-11.52507 l -11.79311,-4.99063 20.36991,24.82448 15.0094,-24.92633 -8.84482,4.55643 C 204.88993,367.51648 76.36976,367.82696 76.659788,453.63237 z"
           id="path4960"
           inkscape:connector-curvature="0"
           sodipodi:nodetypes="cccccccc" />
        <path
           sodipodi:nodetypes="cccccccc"
           inkscape:connector-curvature="0"
           id="path4962"
           d="M 227.27689,460.74991 C 227.00017,392.4526 129.76808,392.3567 127.94142,449.22484 l 11.79312,-4.99063 -20.36992,24.82448 -15.0094,-24.92633 8.84482,4.55643 c 0.95795,-74.32279 129.47813,-74.01231 129.1881,11.7931 z"
           style="fill:#0000ff;stroke:#000000;stroke-width:2;stroke-linecap:butt;stroke-linejoin:miter;stroke-miterlimit:4;stroke-opacity:1;stroke-dasharray:none" />
        <path
           style="fill:#0000ff;stroke:#000000;stroke-width:2;stroke-linecap:butt;stroke-linejoin:miter;stroke-miterlimit:4;stroke-opacity:1;stroke-dasharray:none"
           d="m 127.20992,474.23356 c 0.27672,68.29731 97.50881,68.39321 99.33547,11.52507 l -11.79312,4.99063 20.36992,-24.82448 15.0094,24.92633 -8.84482,-4.55643 c -0.95795,74.32279 -129.47814,74.01231 -129.18811,-11.7931 z"
           id="path4964"
           inkscape:connector-curvature="0"
           sodipodi:nodetypes="cccccccc" />
        <path
           sodipodi:nodetypes="cccccccc"
           inkscape:connector-curvature="0"
           id="path4966"
           d="M 194.45096,467.73068 C 194.17423,536.028 96.942147,536.1239 95.115499,479.25576 l 11.793111,4.99063 -20.369906,-24.82448 -15.009406,24.92633 8.844821,-4.55643 c 0.957959,74.32278 129.478131,74.0123 129.188101,-11.7931 z"
           style="fill:#ff0000;stroke:#000000;stroke-width:2;stroke-linecap:butt;stroke-linejoin:miter;stroke-miterlimit:4;stroke-opacity:1;stroke-dasharray:none" />
      </g>
    </g>
  </g>
</svg>
