<?xml version="1.0" encoding="UTF-8" standalone="no"?>
<!-- Created with Inkscape (http://www.inkscape.org/) -->

<svg
   xmlns:dc="http://purl.org/dc/elements/1.1/"
   xmlns:cc="http://creativecommons.org/ns#"
   xmlns:rdf="http://www.w3.org/1999/02/22-rdf-syntax-ns#"
   xmlns:svg="http://www.w3.org/2000/svg"
   xmlns="http://www.w3.org/2000/svg"
   xmlns:sodipodi="http://sodipodi.sourceforge.net/DTD/sodipodi-0.dtd"
   xmlns:inkscape="http://www.inkscape.org/namespaces/inkscape"
   version="1.1"
   width="1729.9163"
   height="346.21872"
   id="svg2"
   xml:space="preserve"
   inkscape:version="0.48.1 r9760"
   sodipodi:docname="Heun_I-O_Process_Equivalence_3.svg"><sodipodi:namedview
     pagecolor="#ffffff"
     bordercolor="#666666"
     borderopacity="1"
     objecttolerance="10"
     gridtolerance="10"
     guidetolerance="10"
     inkscape:pageopacity="0"
     inkscape:pageshadow="2"
     inkscape:window-width="1233"
     inkscape:window-height="756"
     id="namedview97"
     showgrid="false"
     inkscape:zoom="0.60329476"
     inkscape:cx="934.05734"
     inkscape:cy="34.237668"
     inkscape:window-x="0"
     inkscape:window-y="0"
     inkscape:window-maximized="1"
     inkscape:current-layer="g12"
     fit-margin-top="0"
     fit-margin-left="0"
     fit-margin-right="0"
     fit-margin-bottom="0" /><metadata
     id="metadata8"><rdf:RDF><cc:Work
         rdf:about=""><dc:format>image/svg+xml</dc:format><dc:type
           rdf:resource="http://purl.org/dc/dcmitype/StillImage" /><dc:title></dc:title></cc:Work></rdf:RDF></metadata><defs
     id="defs6"><marker
       style="overflow:visible"
       inkscape:stockid="InfiniteLineEnd"
       id="InfiniteLineEnd"
       refX="0"
       refY="0"
       orient="auto"><g
         id="g4591"><circle
           id="circle4593"
           r="0.80000001"
           cy="0"
           cx="3"
           sodipodi:cx="3"
           sodipodi:cy="0"
           sodipodi:rx="0.80000001"
           sodipodi:ry="0.80000001" /><circle
           id="circle4595"
           r="0.80000001"
           cy="0"
           cx="6.5"
           sodipodi:cx="6.5"
           sodipodi:cy="0"
           sodipodi:rx="0.80000001"
           sodipodi:ry="0.80000001" /><circle
           id="circle4597"
           r="0.80000001"
           cy="0"
           cx="10"
           sodipodi:cx="10"
           sodipodi:cy="0"
           sodipodi:rx="0.80000001"
           sodipodi:ry="0.80000001" /></g></marker><marker
       inkscape:stockid="Arrow1Lstart"
       orient="auto"
       refY="0"
       refX="0"
       id="Arrow1Lstart"
       style="overflow:visible"><path
         id="path4143"
         d="M 0,0 5,-5 -12.5,0 5,5 0,0 z"
         style="fill-rule:evenodd;stroke:#000000;stroke-width:1pt;marker-start:none"
         transform="matrix(0.8,0,0,0.8,10,0)"
         inkscape:connector-curvature="0" /></marker><marker
       inkscape:stockid="Arrow1Lend"
       orient="auto"
       refY="0"
       refX="0"
       id="Arrow1Lend"
       style="overflow:visible"><path
         id="path4132"
         d="M 0,0 5,-5 -12.5,0 5,5 0,0 z"
         style="fill-rule:evenodd;stroke:#000000;stroke-width:1pt;marker-start:none"
         transform="matrix(-0.8,0,0,-0.8,-10,0)"
         inkscape:connector-curvature="0" /></marker><marker
       style="overflow:visible"
       inkscape:stockid="InfiniteLineStart"
       id="InfiniteLineStart"
       refX="0"
       refY="0"
       orient="auto"><g
         id="g4065"
         transform="translate(-13,0)"><circle
           d="M 3.8,0 C 3.8,0.44182781 3.4418278,0.80000001 3,0.80000001 2.5581722,0.80000001 2.2,0.44182781 2.2,0 c 0,-0.44182781 0.3581722,-0.80000001 0.8,-0.80000001 0.4418278,0 0.8,0.3581722 0.8,0.80000001 z"
           id="circle4067"
           r="0.80000001"
           cy="0"
           cx="3"
           sodipodi:cx="3"
           sodipodi:cy="0"
           sodipodi:rx="0.80000001"
           sodipodi:ry="0.80000001" /><circle
           d="M 7.3,0 C 7.3,0.44182781 6.9418278,0.80000001 6.5,0.80000001 6.0581722,0.80000001 5.7,0.44182781 5.7,0 c 0,-0.44182781 0.3581722,-0.80000001 0.8,-0.80000001 0.4418278,0 0.8,0.3581722 0.8,0.80000001 z"
           id="circle4069"
           r="0.80000001"
           cy="0"
           cx="6.5"
           sodipodi:cx="6.5"
           sodipodi:cy="0"
           sodipodi:rx="0.80000001"
           sodipodi:ry="0.80000001" /><circle
           d="M 10.8,0 C 10.8,0.44182781 10.441828,0.80000001 10,0.80000001 9.5581722,0.80000001 9.2,0.44182781 9.2,0 c 0,-0.44182781 0.3581722,-0.80000001 0.8,-0.80000001 0.441828,0 0.8,0.3581722 0.8,0.80000001 z"
           id="circle4071"
           r="0.80000001"
           cy="0"
           cx="10"
           sodipodi:cx="10"
           sodipodi:cy="0"
           sodipodi:rx="0.80000001"
           sodipodi:ry="0.80000001" /></g></marker></defs><g
     transform="matrix(1.25,0,0,-1.25,1530.115,83.590636)"
     id="g10"><g
       id="g12">












































































































<text
   transform="scale(1,-1)"
   sodipodi:linespacing="125%"
   id="text5190"
   y="122.41525"
   x="-551.87653"
   style="font-size:25.60000038px;font-style:normal;font-variant:normal;font-weight:normal;font-stretch:normal;text-align:start;line-height:125%;letter-spacing:0px;word-spacing:0px;text-anchor:start;fill:#000000;fill-opacity:1;stroke:none;font-family:Arial;-inkscape-font-specification:Arial"
   xml:space="preserve"><tspan
     y="122.41525"
     x="-551.87653"
     id="tspan5192"
     sodipodi:role="line">a<tspan
   id="tspan5194"
   style="font-size:52.00042725%;baseline-shift:sub">12</tspan>a<tspan
   id="tspan5196"
   style="font-size:52.00042725%;text-align:start;text-anchor:start;baseline-shift:sub">22</tspan>X<tspan
   id="tspan5198"
   style="font-size:52.00042725%;text-align:start;text-anchor:start;baseline-shift:sub">2</tspan></tspan></text>



<path
   sodipodi:nodetypes="cc"
   inkscape:connector-curvature="0"
   style="fill:none;stroke:#000000;stroke-width:1.60000002;stroke-linecap:butt;stroke-linejoin:miter;stroke-miterlimit:4;stroke-opacity:1;stroke-dasharray:none"
   id="path3015"
   d="m 34.788,-37.428 114.59389,0" /><path
   inkscape:connector-curvature="0"
   style="fill:#000000;fill-opacity:1;fill-rule:evenodd;stroke:#000000;stroke-width:1.60000002;stroke-linecap:butt;stroke-linejoin:miter;stroke-miterlimit:4;stroke-opacity:1;stroke-dasharray:none"
   id="path3017"
   d="m 143.041,-37.428 -6.402,-6.399 22.402,6.399 -22.402,6.402 6.402,-6.402 z" />

















































<text
   transform="scale(1,-1)"
   sodipodi:linespacing="125%"
   id="text4987"
   y="24.815277"
   x="102.43787"
   style="font-size:25.60000038px;font-style:normal;font-variant:normal;font-weight:normal;font-stretch:normal;text-align:end;line-height:125%;letter-spacing:0px;word-spacing:0px;text-anchor:end;fill:#000000;fill-opacity:1;stroke:none;font-family:Arial;-inkscape-font-specification:Arial"
   xml:space="preserve"><tspan
     y="24.815277"
     x="102.43787"
     id="tspan4989"
     sodipodi:role="line">X<tspan
   id="tspan4991"
   style="font-size:52.00042725%;baseline-shift:sub">2</tspan></tspan></text>




























































<path
   sodipodi:type="arc"
   style="fill:#000000;fill-opacity:1;stroke:none"
   id="path3121"
   sodipodi:cx="-182.15479"
   sodipodi:cy="250.41866"
   sodipodi:rx="27.011545"
   sodipodi:ry="19.392904"
   d="m -155.14324,250.41866 c 0,10.7104 -12.09348,19.3929 -27.01155,19.3929 -14.91806,0 -27.01154,-8.6825 -27.01154,-19.3929 0,-10.71041 12.09348,-19.39291 27.01154,-19.39291 14.91807,0 27.01155,8.6825 27.01155,19.39291 z"
   transform="matrix(0.07404241,0,0,-0.1031305,101.37419,26.69831)" /><path
   sodipodi:nodetypes="ccc"
   inkscape:connector-curvature="0"
   id="path3349"
   d="m -151.27482,-53.27824 -98.66236,0 0,-139.54423"
   style="fill:none;stroke:#000000;stroke-width:1.60000002;stroke-linecap:butt;stroke-linejoin:miter;stroke-opacity:1;marker-start:url(#Arrow1Lstart);marker-end:url(#InfiniteLineEnd)" />








<text
   xml:space="preserve"
   style="font-size:25.60000038px;font-style:normal;font-variant:normal;font-weight:normal;font-stretch:normal;text-align:start;line-height:125%;letter-spacing:0px;word-spacing:0px;text-anchor:start;fill:#000000;fill-opacity:1;stroke:none;font-family:Arial;-inkscape-font-specification:Arial"
   x="-241.47688"
   y="138.41525"
   id="text4806"
   sodipodi:linespacing="125%"
   transform="scale(1,-1)"><tspan
     sodipodi:role="line"
     id="tspan4808"
     x="-241.47688"
     y="138.41525">a<tspan
   style="font-size:52.00042725%;text-align:start;text-anchor:start;baseline-shift:sub"
   id="tspan3352">12</tspan>X<tspan
   style="font-size:52.00042725%;text-align:start;text-anchor:start;baseline-shift:sub"
   id="tspan4810">2</tspan></tspan></text>






<path
   sodipodi:type="arc"
   style="fill:#000000;fill-opacity:1;stroke:none"
   id="path4812"
   sodipodi:cx="-182.15479"
   sodipodi:cy="250.41866"
   sodipodi:rx="27.011545"
   sodipodi:ry="19.392904"
   d="m -155.14324,250.41866 c 0,10.7104 -12.09348,19.3929 -27.01155,19.3929 -14.91806,0 -27.01154,-8.6825 -27.01154,-19.3929 0,-10.71041 12.09348,-19.39291 27.01154,-19.39291 14.91807,0 27.01155,8.6825 27.01155,19.39291 z"
   transform="matrix(0.07404241,0,0,-0.1031305,-189.82581,-88.50169)" />








<path
   sodipodi:nodetypes="cczccc"
   inkscape:connector-curvature="0"
   style="fill:none;stroke:#000000;stroke-width:2.4000001;stroke-linecap:butt;stroke-linejoin:miter;stroke-miterlimit:4;stroke-opacity:1;stroke-dasharray:none"
   id="path5014"
   d="m -149.923,14.392 137.1,0 c 0,0 48.00026,-0.20927 48,-51.82 -2.6e-4,-51.61073 -48,-51.817 -48,-51.817 l -136.847,0 z" /><path
   d="m -275.612,-21.428 114.59389,0"
   id="path4811"
   style="fill:none;stroke:#000000;stroke-width:1.60000002;stroke-linecap:butt;stroke-linejoin:miter;stroke-miterlimit:4;stroke-opacity:1;stroke-dasharray:none"
   inkscape:connector-curvature="0"
   sodipodi:nodetypes="cc" /><path
   d="m -167.359,-21.428 -6.402,-6.399 22.402,6.399 -22.402,6.402 6.402,-6.402 z"
   id="path4813"
   style="fill:#000000;fill-opacity:1;fill-rule:evenodd;stroke:#000000;stroke-width:1.60000002;stroke-linecap:butt;stroke-linejoin:miter;stroke-miterlimit:4;stroke-opacity:1;stroke-dasharray:none"
   inkscape:connector-curvature="0" />

<text
   xml:space="preserve"
   style="font-size:25.60000038px;font-style:normal;font-variant:normal;font-weight:normal;font-stretch:normal;text-align:end;line-height:125%;letter-spacing:0px;word-spacing:0px;text-anchor:end;fill:#000000;fill-opacity:1;stroke:none;font-family:Arial;-inkscape-font-specification:Arial"
   x="-195.16217"
   y="8.8152771"
   id="text4823"
   sodipodi:linespacing="125%"
   transform="scale(1,-1)"><tspan
     sodipodi:role="line"
     id="tspan4825"
     x="-195.16217"
     y="8.8152771">a<tspan
   style="font-size:52.00042725%;baseline-shift:sub"
   id="tspan4845">22</tspan>X<tspan
   style="font-size:52.00042725%;baseline-shift:sub"
   id="tspan4827">2</tspan></tspan></text>



<path
   transform="matrix(0.07404241,0,0,-0.1031305,-196.22581,42.69831)"
   d="m -155.14324,250.41866 c 0,10.7104 -12.09348,19.3929 -27.01155,19.3929 -14.91806,0 -27.01154,-8.6825 -27.01154,-19.3929 0,-10.71041 12.09348,-19.39291 27.01154,-19.39291 14.91807,0 27.01155,8.6825 27.01155,19.39291 z"
   sodipodi:ry="19.392904"
   sodipodi:rx="27.011545"
   sodipodi:cy="250.41866"
   sodipodi:cx="-182.15479"
   id="path4829"
   style="fill:#000000;fill-opacity:1;stroke:none"
   sodipodi:type="arc" /><path
   style="fill:none;stroke:#000000;stroke-width:1.60000002;stroke-linecap:butt;stroke-linejoin:miter;stroke-opacity:1;marker-start:url(#Arrow1Lstart);marker-end:url(#InfiniteLineEnd)"
   d="m -461.67482,-37.27824 -98.66236,0 0,-139.54423"
   id="path4831"
   inkscape:connector-curvature="0"
   sodipodi:nodetypes="ccc" /><path
   transform="matrix(0.07404241,0,0,-0.1031305,-473.02581,-72.50169)"
   d="m -155.14324,250.41866 c 0,10.7104 -12.09348,19.3929 -27.01155,19.3929 -14.91806,0 -27.01154,-8.6825 -27.01154,-19.3929 0,-10.71041 12.09348,-19.39291 27.01154,-19.39291 14.91807,0 27.01155,8.6825 27.01155,19.39291 z"
   sodipodi:ry="19.392904"
   sodipodi:rx="27.011545"
   sodipodi:cy="250.41866"
   sodipodi:cx="-182.15479"
   id="path4841"
   style="fill:#000000;fill-opacity:1;stroke:none"
   sodipodi:type="arc" /><path
   d="m -460.323,30.392 137.1,0 c 0,0 48.00026,-0.20927 48,-51.82 -2.6e-4,-51.61073 -48,-51.817 -48,-51.817 l -136.847,0 z"
   id="path4843"
   style="fill:none;stroke:#000000;stroke-width:2.4000001;stroke-linecap:butt;stroke-linejoin:miter;stroke-miterlimit:4;stroke-opacity:1;stroke-dasharray:none"
   inkscape:connector-curvature="0"
   sodipodi:nodetypes="cczccc" /><path
   sodipodi:nodetypes="cc"
   inkscape:connector-curvature="0"
   style="fill:none;stroke:#000000;stroke-width:1.60000002;stroke-linecap:butt;stroke-linejoin:miter;stroke-miterlimit:4;stroke-opacity:1;stroke-dasharray:none"
   id="path4847"
   d="m -586.012,-5.428 114.59389,0" /><path
   inkscape:connector-curvature="0"
   style="fill:#000000;fill-opacity:1;fill-rule:evenodd;stroke:#000000;stroke-width:1.60000002;stroke-linecap:butt;stroke-linejoin:miter;stroke-miterlimit:4;stroke-opacity:1;stroke-dasharray:none"
   id="path4849"
   d="m -477.759,-5.428 -6.402,-6.399 22.402,6.399 -22.402,6.402 6.402,-6.402 z" />

<text
   transform="scale(1,-1)"
   sodipodi:linespacing="125%"
   id="text4859"
   y="-7.1847229"
   x="-505.56219"
   style="font-size:25.60000038px;font-style:normal;font-variant:normal;font-weight:normal;font-stretch:normal;text-align:end;line-height:125%;letter-spacing:0px;word-spacing:0px;text-anchor:end;fill:#000000;fill-opacity:1;stroke:none;font-family:Arial;-inkscape-font-specification:Arial"
   xml:space="preserve"><tspan
     y="-7.1847229"
     x="-505.56219"
     id="tspan4861"
     sodipodi:role="line">a<tspan
   id="tspan4863"
   style="font-size:52.00042725%;baseline-shift:sub">22</tspan>X<tspan
   id="tspan4865"
   style="font-size:52.00042725%;baseline-shift:sub">2</tspan></tspan></text>



<path
   sodipodi:type="arc"
   style="fill:#000000;fill-opacity:1;stroke:none"
   id="path4867"
   sodipodi:cx="-182.15479"
   sodipodi:cy="250.41866"
   sodipodi:rx="27.011545"
   sodipodi:ry="19.392904"
   d="m -155.14324,250.41866 c 0,10.7104 -12.09348,19.3929 -27.01155,19.3929 -14.91806,0 -27.01154,-8.6825 -27.01154,-19.3929 0,-10.71041 12.09348,-19.39291 27.01154,-19.39291 14.91807,0 27.01155,8.6825 27.01155,19.39291 z"
   transform="matrix(0.07404241,0,0,-0.1031305,-506.62581,58.69831)" /><path
   sodipodi:nodetypes="ccc"
   inkscape:connector-curvature="0"
   id="path4869"
   d="m -772.07482,-21.27824 -98.66236,0 0,-139.54423"
   style="fill:none;stroke:#000000;stroke-width:1.60000002;stroke-linecap:butt;stroke-linejoin:miter;stroke-opacity:1;marker-start:url(#Arrow1Lstart);marker-end:url(#InfiniteLineEnd)" /><text
   xml:space="preserve"
   style="font-size:25.60000038px;font-style:normal;font-variant:normal;font-weight:normal;font-stretch:normal;text-align:start;line-height:125%;letter-spacing:0px;word-spacing:0px;text-anchor:start;fill:#000000;fill-opacity:1;stroke:none;font-family:Arial;-inkscape-font-specification:Arial"
   x="-862.27667"
   y="106.41525"
   id="text4871"
   sodipodi:linespacing="125%"
   transform="scale(1,-1)"><tspan
     sodipodi:role="line"
     id="tspan4873"
     x="-862.27667"
     y="106.41525">a<tspan
   style="font-size:52.00042725%;baseline-shift:sub"
   id="tspan4915">12</tspan>a<tspan
   style="font-size:52.00042725%;text-align:start;text-anchor:start;baseline-shift:sub"
   id="tspan4875">22</tspan>X<tspan
   style="font-size:52.00042725%;text-align:start;text-anchor:start;baseline-shift:sub"
   id="tspan4877">2</tspan></tspan></text>



<path
   sodipodi:type="arc"
   style="fill:#000000;fill-opacity:1;stroke:none"
   id="path4879"
   sodipodi:cx="-182.15479"
   sodipodi:cy="250.41866"
   sodipodi:rx="27.011545"
   sodipodi:ry="19.392904"
   d="m -155.14324,250.41866 c 0,10.7104 -12.09348,19.3929 -27.01155,19.3929 -14.91806,0 -27.01154,-8.6825 -27.01154,-19.3929 0,-10.71041 12.09348,-19.39291 27.01154,-19.39291 14.91807,0 27.01155,8.6825 27.01155,19.39291 z"
   transform="matrix(0.07404241,0,0,-0.1031305,-783.42581,-56.50169)" /><path
   sodipodi:nodetypes="cczccc"
   inkscape:connector-curvature="0"
   style="fill:none;stroke:#000000;stroke-width:2.4000001;stroke-linecap:butt;stroke-linejoin:miter;stroke-miterlimit:4;stroke-opacity:1;stroke-dasharray:none"
   id="path4881"
   d="m -770.723,46.392 137.1,0 c 0,0 48.00026,-0.20927 48,-51.82 -2.6e-4,-51.61073 -48,-51.817 -48,-51.817 l -136.847,0 z" /><text
   xml:space="preserve"
   style="font-size:12.80000019px;font-style:normal;font-variant:normal;font-weight:normal;font-stretch:normal;text-align:end;line-height:125%;letter-spacing:0px;word-spacing:0px;text-anchor:end;fill:#000000;fill-opacity:1;stroke:none;font-family:Arial;-inkscape-font-specification:Arial"
   x="-537.75806"
   y="-22.590729"
   id="text4919"
   sodipodi:linespacing="125%"
   transform="scale(1,-1)"><tspan
     sodipodi:role="line"
     id="tspan4921"
     x="-537.75806"
     y="-22.590729">2</tspan></text>



<path
   d="m -896.412,10.572 114.59389,0"
   id="path4923"
   style="fill:none;stroke:#000000;stroke-width:1.60000002;stroke-linecap:butt;stroke-linejoin:miter;stroke-miterlimit:4;stroke-opacity:1;stroke-dasharray:none"
   inkscape:connector-curvature="0"
   sodipodi:nodetypes="cc" /><path
   d="m -788.159,10.572 -6.402,-6.399 22.402,6.399 -22.402,6.402 6.402,-6.402 z"
   id="path4925"
   style="fill:#000000;fill-opacity:1;fill-rule:evenodd;stroke:#000000;stroke-width:1.60000002;stroke-linecap:butt;stroke-linejoin:miter;stroke-miterlimit:4;stroke-opacity:1;stroke-dasharray:none"
   inkscape:connector-curvature="0" /><text
   xml:space="preserve"
   style="font-size:25.60000038px;font-style:normal;font-variant:normal;font-weight:normal;font-stretch:normal;text-align:center;line-height:125%;letter-spacing:0px;word-spacing:0px;text-anchor:middle;fill:#000000;fill-opacity:1;stroke:none;font-family:Arial;-inkscape-font-specification:Arial"
   x="-995.69427"
   y="-19.9237"
   id="text4927"
   sodipodi:linespacing="125%"
   transform="scale(1,-1)"><tspan
     id="tspan4931"
     sodipodi:role="line"
     x="-995.69427"
     y="-19.9237">Sector</tspan><tspan
     id="tspan4933"
     sodipodi:role="line"
     x="-995.69427"
     y="12.0763">(2)</tspan></text>



<text
   xml:space="preserve"
   style="font-size:25.60000038px;font-style:normal;font-variant:normal;font-weight:normal;font-stretch:normal;text-align:end;line-height:125%;letter-spacing:0px;word-spacing:0px;text-anchor:end;fill:#000000;fill-opacity:1;stroke:none;font-family:Arial;-inkscape-font-specification:Arial"
   x="-815.9621"
   y="-23.184723"
   id="text4935"
   sodipodi:linespacing="125%"
   transform="scale(1,-1)"><tspan
     sodipodi:role="line"
     id="tspan4937"
     x="-815.9621"
     y="-23.184723">a<tspan
   style="font-size:52.00042725%;baseline-shift:sub"
   id="tspan4939">22</tspan>X<tspan
   style="font-size:52.00042725%;baseline-shift:sub"
   id="tspan4941">2</tspan></tspan></text>



<path
   transform="matrix(0.07404241,0,0,-0.1031305,-817.02581,74.69831)"
   d="m -155.14324,250.41866 c 0,10.7104 -12.09348,19.3929 -27.01155,19.3929 -14.91806,0 -27.01154,-8.6825 -27.01154,-19.3929 0,-10.71041 12.09348,-19.39291 27.01154,-19.39291 14.91807,0 27.01155,8.6825 27.01155,19.39291 z"
   sodipodi:ry="19.392904"
   sodipodi:rx="27.011545"
   sodipodi:cy="250.41866"
   sodipodi:cx="-182.15479"
   id="path4943"
   style="fill:#000000;fill-opacity:1;stroke:none"
   sodipodi:type="arc" /><path
   style="fill:none;stroke:#000000;stroke-width:1.60000002;stroke-linecap:butt;stroke-linejoin:miter;stroke-opacity:1;marker-start:url(#Arrow1Lstart);marker-end:url(#InfiniteLineEnd)"
   d="m -1082.4748,-5.27824 -98.6624,0 0,-139.54423"
   id="path4945"
   inkscape:connector-curvature="0"
   sodipodi:nodetypes="ccc" /><text
   transform="scale(1,-1)"
   sodipodi:linespacing="125%"
   id="text4947"
   y="90.415253"
   x="-1172.6765"
   style="font-size:25.60000038px;font-style:normal;font-variant:normal;font-weight:normal;font-stretch:normal;text-align:start;line-height:125%;letter-spacing:0px;word-spacing:0px;text-anchor:start;fill:#000000;fill-opacity:1;stroke:none;font-family:Arial;-inkscape-font-specification:Arial"
   xml:space="preserve"><tspan
     y="90.415253"
     x="-1172.6765"
     id="tspan4949"
     sodipodi:role="line">a<tspan
   id="tspan4951"
   style="font-size:52.00042725%;baseline-shift:sub">12</tspan>a<tspan
   id="tspan4953"
   style="font-size:52.00042725%;text-align:start;text-anchor:start;baseline-shift:sub">22</tspan>X<tspan
   id="tspan4955"
   style="font-size:52.00042725%;text-align:start;text-anchor:start;baseline-shift:sub">2</tspan></tspan></text>



<path
   transform="matrix(0.07404241,0,0,-0.1031305,-1093.8258,-40.50169)"
   d="m -155.14324,250.41866 c 0,10.7104 -12.09348,19.3929 -27.01155,19.3929 -14.91806,0 -27.01154,-8.6825 -27.01154,-19.3929 0,-10.71041 12.09348,-19.39291 27.01154,-19.39291 14.91807,0 27.01155,8.6825 27.01155,19.39291 z"
   sodipodi:ry="19.392904"
   sodipodi:rx="27.011545"
   sodipodi:cy="250.41866"
   sodipodi:cx="-182.15479"
   id="path4957"
   style="fill:#000000;fill-opacity:1;stroke:none"
   sodipodi:type="arc" /><path
   d="m -1081.123,62.392 137.1,0 c 0,0 48.00026,-0.20927 48,-51.82 -2.6e-4,-51.61073 -48,-51.817 -48,-51.817 l -136.847,0 z"
   id="path4959"
   style="fill:none;stroke:#000000;stroke-width:2.4000001;stroke-linecap:butt;stroke-linejoin:miter;stroke-miterlimit:4;stroke-opacity:1;stroke-dasharray:none"
   inkscape:connector-curvature="0"
   sodipodi:nodetypes="cczccc" /><text
   transform="scale(1,-1)"
   sodipodi:linespacing="125%"
   id="text4961"
   y="-38.590729"
   x="-848.15796"
   style="font-size:12.80000019px;font-style:normal;font-variant:normal;font-weight:normal;font-stretch:normal;text-align:end;line-height:125%;letter-spacing:0px;word-spacing:0px;text-anchor:end;fill:#000000;fill-opacity:1;stroke:none;font-family:Arial;-inkscape-font-specification:Arial"
   xml:space="preserve"><tspan
     y="-38.590729"
     x="-848.15796"
     id="tspan4963"
     sodipodi:role="line">3</tspan></text>



<text
   xml:space="preserve"
   style="font-size:12.80000019px;font-style:normal;font-variant:normal;font-weight:normal;font-stretch:normal;text-align:end;line-height:125%;letter-spacing:0px;word-spacing:0px;text-anchor:end;fill:#000000;fill-opacity:1;stroke:none;font-family:Arial;-inkscape-font-specification:Arial"
   x="-1121.7582"
   y="75.009254"
   id="text4965"
   sodipodi:linespacing="125%"
   transform="scale(1,-1)"><tspan
     sodipodi:role="line"
     id="tspan4967"
     x="-1121.7582"
     y="75.009254">3</tspan></text>



<path
   sodipodi:nodetypes="cc"
   inkscape:connector-curvature="0"
   style="fill:none;stroke:#000000;stroke-width:1.60000002;stroke-linecap:butt;stroke-linejoin:miter;stroke-miterlimit:4;stroke-opacity:1;stroke-dasharray:none;marker-start:url(#InfiniteLineStart)"
   id="path4969"
   d="m -1206.812,26.572 114.5939,0" /><path
   inkscape:connector-curvature="0"
   style="fill:#000000;fill-opacity:1;fill-rule:evenodd;stroke:#000000;stroke-width:1.60000002;stroke-linecap:butt;stroke-linejoin:miter;stroke-miterlimit:4;stroke-opacity:1;stroke-dasharray:none"
   id="path4971"
   d="m -1098.559,26.572 -6.402,-6.399 22.402,6.399 -22.402,6.402 6.402,-6.402 z" /><text
   transform="scale(1,-1)"
   sodipodi:linespacing="125%"
   id="text4973"
   y="-39.184723"
   x="-1126.3621"
   style="font-size:25.60000038px;font-style:normal;font-variant:normal;font-weight:normal;font-stretch:normal;text-align:end;line-height:125%;letter-spacing:0px;word-spacing:0px;text-anchor:end;fill:#000000;fill-opacity:1;stroke:none;font-family:Arial;-inkscape-font-specification:Arial"
   xml:space="preserve"><tspan
     y="-39.184723"
     x="-1126.3621"
     id="tspan4975"
     sodipodi:role="line">a<tspan
   id="tspan4977"
   style="font-size:52.00042725%;baseline-shift:sub">22</tspan>X<tspan
   id="tspan4979"
   style="font-size:52.00042725%;baseline-shift:sub">2</tspan></tspan></text>



<path
   sodipodi:type="arc"
   style="fill:#000000;fill-opacity:1;stroke:none"
   id="path4981"
   sodipodi:cx="-182.15479"
   sodipodi:cy="250.41866"
   sodipodi:rx="27.011545"
   sodipodi:ry="19.392904"
   d="m -155.14324,250.41866 c 0,10.7104 -12.09348,19.3929 -27.01155,19.3929 -14.91806,0 -27.01154,-8.6825 -27.01154,-19.3929 0,-10.71041 12.09348,-19.39291 27.01154,-19.39291 14.91807,0 27.01155,8.6825 27.01155,19.39291 z"
   transform="matrix(0.07404241,0,0,-0.1031305,-1127.4258,90.69831)" /><text
   xml:space="preserve"
   style="font-size:12.80000019px;font-style:normal;font-variant:normal;font-weight:normal;font-stretch:normal;text-align:end;line-height:125%;letter-spacing:0px;word-spacing:0px;text-anchor:end;fill:#000000;fill-opacity:1;stroke:none;font-family:Arial;-inkscape-font-specification:Arial"
   x="-1158.5579"
   y="-54.590729"
   id="text4983"
   sodipodi:linespacing="125%"
   transform="scale(1,-1)"><tspan
     sodipodi:role="line"
     id="tspan4985"
     x="-1158.5579"
     y="-54.590729">4</tspan></text>



<text
   xml:space="preserve"
   style="font-size:16px;font-style:normal;font-variant:normal;font-weight:normal;font-stretch:normal;text-align:end;line-height:125%;letter-spacing:0px;word-spacing:0px;text-anchor:end;fill:#000000;fill-opacity:1;stroke:none;font-family:Arial;-inkscape-font-specification:Arial"
   x="-649.76532"
   y="346.6597"
   id="text4988"
   sodipodi:linespacing="125%"
   transform="matrix(0.8,0,0,-0.8,-637.6017,333.12176)"><tspan
     sodipodi:role="line"
     id="tspan4990"
     x="-649.76532"
     y="346.6597" /></text>



<text
   transform="scale(1,-1)"
   sodipodi:linespacing="125%"
   id="text5186"
   y="91.009254"
   x="-812.95825"
   style="font-size:12.80000019px;font-style:normal;font-variant:normal;font-weight:normal;font-stretch:normal;text-align:end;line-height:125%;letter-spacing:0px;word-spacing:0px;text-anchor:end;fill:#000000;fill-opacity:1;stroke:none;font-family:Arial;-inkscape-font-specification:Arial"
   xml:space="preserve"><tspan
     y="91.009254"
     x="-812.95825"
     id="tspan5188"
     sodipodi:role="line">2</tspan></text>



<text
   transform="scale(1,-1)"
   sodipodi:linespacing="125%"
   id="text3110"
   y="-3.9237008"
   x="-682.09418"
   style="font-size:25.60000038px;font-style:normal;font-variant:normal;font-weight:normal;font-stretch:normal;text-align:center;line-height:125%;letter-spacing:0px;word-spacing:0px;text-anchor:middle;fill:#000000;fill-opacity:1;stroke:none;font-family:Arial;-inkscape-font-specification:Arial"
   xml:space="preserve"><tspan
     y="-3.9237008"
     x="-682.09418"
     sodipodi:role="line"
     id="tspan3112">Sector</tspan><tspan
     y="28.0763"
     x="-682.09418"
     sodipodi:role="line"
     id="tspan3114">(2)</tspan></text>

<text
   xml:space="preserve"
   style="font-size:25.60000038px;font-style:normal;font-variant:normal;font-weight:normal;font-stretch:normal;text-align:center;line-height:125%;letter-spacing:0px;word-spacing:0px;text-anchor:middle;fill:#000000;fill-opacity:1;stroke:none;font-family:Arial;-inkscape-font-specification:Arial"
   x="-371.69415"
   y="10.476299"
   id="text3116"
   sodipodi:linespacing="125%"
   transform="scale(1,-1)"><tspan
     id="tspan3118"
     sodipodi:role="line"
     x="-371.69415"
     y="10.476299">Sector</tspan><tspan
     id="tspan3120"
     sodipodi:role="line"
     x="-371.69415"
     y="42.476299">(2)</tspan></text>

<text
   transform="scale(1,-1)"
   sodipodi:linespacing="125%"
   id="text3122"
   y="26.476299"
   x="-61.294159"
   style="font-size:25.60000038px;font-style:normal;font-variant:normal;font-weight:normal;font-stretch:normal;text-align:center;line-height:125%;letter-spacing:0px;word-spacing:0px;text-anchor:middle;fill:#000000;fill-opacity:1;stroke:none;font-family:Arial;-inkscape-font-specification:Arial"
   xml:space="preserve"><tspan
     y="26.476299"
     x="-61.294159"
     sodipodi:role="line"
     id="tspan3124">Sector</tspan><tspan
     y="58.476299"
     x="-61.294159"
     sodipodi:role="line"
     id="tspan3126">(2)</tspan></text>

</g></g></svg>