<?xml version="1.0" encoding="UTF-8" standalone="no"?>
<!-- Created with Inkscape (http://www.inkscape.org/) -->

<svg
   xmlns:dc="http://purl.org/dc/elements/1.1/"
   xmlns:cc="http://creativecommons.org/ns#"
   xmlns:rdf="http://www.w3.org/1999/02/22-rdf-syntax-ns#"
   xmlns:svg="http://www.w3.org/2000/svg"
   xmlns="http://www.w3.org/2000/svg"
   xmlns:sodipodi="http://sodipodi.sourceforge.net/DTD/sodipodi-0.dtd"
   xmlns:inkscape="http://www.inkscape.org/namespaces/inkscape"
   width="630.61426"
   height="345.92068"
   id="svg2"
   version="1.1"
   inkscape:version="0.48.1 r9760"
   sodipodi:docname="I-0_Boundary.svg">
  <defs
     id="defs4" />
  <sodipodi:namedview
     id="base"
     pagecolor="#ffffff"
     bordercolor="#666666"
     borderopacity="1.0"
     inkscape:pageopacity="0.0"
     inkscape:pageshadow="2"
     inkscape:zoom="2.7752026"
     inkscape:cx="315.30713"
     inkscape:cy="172.96034"
     inkscape:document-units="px"
     inkscape:current-layer="layer1"
     showgrid="false"
     inkscape:window-width="1920"
     inkscape:window-height="1178"
     inkscape:window-x="0"
     inkscape:window-y="0"
     inkscape:window-maximized="0"
     fit-margin-top="0"
     fit-margin-left="0"
     fit-margin-right="0"
     fit-margin-bottom="0" />
  <metadata
     id="metadata7">
    <rdf:RDF>
      <cc:Work
         rdf:about="">
        <dc:format>image/svg+xml</dc:format>
        <dc:type
           rdf:resource="http://purl.org/dc/dcmitype/StillImage" />
        <dc:title></dc:title>
      </cc:Work>
    </rdf:RDF>
  </metadata>
  <g
     inkscape:label="Layer 1"
     inkscape:groupmode="layer"
     id="layer1"
     transform="translate(-91.198242,-340.79807)">
    <rect
       style="fill:none;stroke:#000000;stroke-width:1;stroke-miterlimit:4;stroke-opacity:1;stroke-dasharray:none;stroke-dashoffset:0"
       id="rect2985"
       width="391.3472"
       height="329.95935"
       x="329.95938"
       y="356.26843"
       rx="0"
       ry="0" />
    <path
       sodipodi:type="arc"
       style="fill:none;stroke:#000000;stroke-width:1.0162437;stroke-miterlimit:4;stroke-opacity:1;stroke-dasharray:6.09746237, 6.09746237;stroke-dashoffset:0"
       id="path3755"
       sodipodi:cx="312.96814"
       sodipodi:cy="571.12573"
       sodipodi:rx="140.86307"
       sodipodi:ry="122.77559"
       d="m 453.83121,571.12573 c 0,67.80709 -63.06655,122.77559 -140.86307,122.77559 -77.79652,0 -140.86307,-54.9685 -140.86307,-122.77559 0,-67.80708 63.06655,-122.77559 140.86307,-122.77559 77.79652,0 140.86307,54.96851 140.86307,122.77559 z"
       transform="matrix(1.0613711,0,0,0.91229855,-10.570273,0.864143)" />
    <g
       id="g3769"
       transform="translate(-34,14)">
      <text
         sodipodi:linespacing="125%"
         id="text3759"
         y="502.64172"
         x="261.29761"
         style="font-size:14px;font-style:normal;font-variant:normal;font-weight:normal;font-stretch:normal;text-align:center;line-height:125%;letter-spacing:0px;word-spacing:0px;text-anchor:middle;fill:#000000;fill-opacity:1;stroke:none;font-family:Arial;-inkscape-font-specification:Arial"
         xml:space="preserve"><tspan
           style="font-size:14px"
           y="502.64172"
           x="261.29761"
           id="tspan3761"
           sodipodi:role="line">TARGET</tspan><tspan
           style="font-size:14px"
           id="tspan3763"
           y="520.14172"
           x="261.29761"
           sodipodi:role="line">PRODUCT</tspan></text>
      <rect
         style="fill:none;stroke:#000000;stroke-width:1;stroke-miterlimit:4;stroke-opacity:1;stroke-dasharray:none;stroke-dashoffset:0"
         id="rect3767"
         width="77.830956"
         height="38.367329"
         x="223.42297"
         y="488.26843"
         rx="0"
         ry="0" />
    </g>
    <path
       style="fill:none;stroke:#000000;stroke-width:1px;stroke-linecap:butt;stroke-linejoin:miter;stroke-opacity:1"
       d="m 267.42058,515.32579 97.02149,-53.51738 -0.27177,-20.1109 -14.67552,-29.89458"
       id="path3818"
       inkscape:connector-curvature="0"
       sodipodi:nodetypes="cccc" />
    <path
       style="fill:none;stroke:#000000;stroke-width:1px;stroke-linecap:butt;stroke-linejoin:miter;stroke-opacity:1"
       d="m 366.61622,414.79239 -2.71769,26.90512 17.12144,-22.82859"
       id="path3820"
       inkscape:connector-curvature="0" />
    <path
       style="fill:none;stroke:#000000;stroke-width:1px;stroke-linecap:butt;stroke-linejoin:miter;stroke-opacity:1"
       d="m 383.19412,419.41246 0.54354,22.01328 16.84967,-13.86021"
       id="path3822"
       inkscape:connector-curvature="0" />
    <path
       style="fill:none;stroke:#000000;stroke-width:1px;stroke-linecap:butt;stroke-linejoin:miter;stroke-opacity:1"
       d="m 409.28393,431.64206 -5.70714,10.05545 27.44865,4.62007"
       id="path3824"
       inkscape:connector-curvature="0" />
    <path
       style="fill:none;stroke:#000000;stroke-width:1px;stroke-linecap:butt;stroke-linejoin:miter;stroke-opacity:1"
       d="m 393.52134,423.76076 -9.51191,17.66498 -19.56736,19.83913 39.40649,-19.83913 15.76259,-4.3483"
       id="path3826"
       inkscape:connector-curvature="0" />
    <path
       inkscape:connector-curvature="0"
       id="path3828"
       d="m 267.42058,527.80293 97.02149,53.51738 -0.27177,20.1109 -14.67552,29.89458"
       style="fill:none;stroke:#000000;stroke-width:1px;stroke-linecap:butt;stroke-linejoin:miter;stroke-opacity:1"
       sodipodi:nodetypes="cccc" />
    <path
       inkscape:connector-curvature="0"
       id="path3830"
       d="m 366.61622,628.33633 -2.71769,-26.90512 17.12144,22.82859"
       style="fill:none;stroke:#000000;stroke-width:1px;stroke-linecap:butt;stroke-linejoin:miter;stroke-opacity:1" />
    <path
       inkscape:connector-curvature="0"
       id="path3832"
       d="m 383.19412,623.71626 0.54354,-22.01328 16.84967,13.86021"
       style="fill:none;stroke:#000000;stroke-width:1px;stroke-linecap:butt;stroke-linejoin:miter;stroke-opacity:1" />
    <path
       inkscape:connector-curvature="0"
       id="path3834"
       d="m 409.28393,611.48666 -5.70714,-10.05545 27.44865,-4.62007"
       style="fill:none;stroke:#000000;stroke-width:1px;stroke-linecap:butt;stroke-linejoin:miter;stroke-opacity:1" />
    <path
       inkscape:connector-curvature="0"
       id="path3836"
       d="m 393.52134,619.36796 -9.51191,-17.66498 -19.56736,-19.83913 39.40649,19.83913 15.76259,4.3483"
       style="fill:none;stroke:#000000;stroke-width:1px;stroke-linecap:butt;stroke-linejoin:miter;stroke-opacity:1" />
    <path
       transform="matrix(0.92829442,0,0,1.2996122,304.53334,-61.73215)"
       d="m 67.965056,402.85739 c 0,1.51355 -1.717766,2.74053 -3.836737,2.74053 -2.118972,0 -3.836737,-1.22698 -3.836737,-2.74053 0,-1.51355 1.717765,-2.74053 3.836737,-2.74053 2.118971,0 3.836737,1.22698 3.836737,2.74053 z"
       sodipodi:ry="2.7405264"
       sodipodi:rx="3.8367372"
       sodipodi:cy="402.85739"
       sodipodi:cx="64.128319"
       id="path3777"
       style="fill:#ffffff;fill-opacity:1;stroke:#000000;stroke-width:0.9104377;stroke-miterlimit:4;stroke-opacity:1;stroke-dasharray:none;stroke-dashoffset:0"
       sodipodi:type="arc" />
    <path
       sodipodi:type="arc"
       style="fill:#ffffff;fill-opacity:1;stroke:#000000;stroke-width:0.9104377;stroke-miterlimit:4;stroke-opacity:1;stroke-dasharray:none;stroke-dashoffset:0"
       id="path3779"
       sodipodi:cx="64.128319"
       sodipodi:cy="402.85739"
       sodipodi:rx="3.8367372"
       sodipodi:ry="2.7405264"
       d="m 67.965056,402.85739 c 0,1.51355 -1.717766,2.74053 -3.836737,2.74053 -2.118972,0 -3.836737,-1.22698 -3.836737,-2.74053 0,-1.51355 1.717765,-2.74053 3.836737,-2.74053 2.118971,0 3.836737,1.22698 3.836737,2.74053 z"
       transform="matrix(0.92829442,0,0,1.2996122,304.53334,58.26785)" />
    <path
       transform="matrix(0.92829442,0,0,1.2996122,304.53334,78.26785)"
       d="m 67.965056,402.85739 c 0,1.51355 -1.717766,2.74053 -3.836737,2.74053 -2.118972,0 -3.836737,-1.22698 -3.836737,-2.74053 0,-1.51355 1.717765,-2.74053 3.836737,-2.74053 2.118971,0 3.836737,1.22698 3.836737,2.74053 z"
       sodipodi:ry="2.7405264"
       sodipodi:rx="3.8367372"
       sodipodi:cy="402.85739"
       sodipodi:cx="64.128319"
       id="path3787"
       style="fill:#ffffff;fill-opacity:1;stroke:#000000;stroke-width:0.9104377;stroke-miterlimit:4;stroke-opacity:1;stroke-dasharray:none;stroke-dashoffset:0"
       sodipodi:type="arc" />
    <path
       sodipodi:type="arc"
       style="fill:#ffffff;fill-opacity:1;stroke:#000000;stroke-width:0.9104377;stroke-miterlimit:4;stroke-opacity:1;stroke-dasharray:none;stroke-dashoffset:0"
       id="path3789"
       sodipodi:cx="64.128319"
       sodipodi:cy="402.85739"
       sodipodi:rx="3.8367372"
       sodipodi:ry="2.7405264"
       d="m 67.965056,402.85739 c 0,1.51355 -1.717766,2.74053 -3.836737,2.74053 -2.118972,0 -3.836737,-1.22698 -3.836737,-2.74053 0,-1.51355 1.717765,-2.74053 3.836737,-2.74053 2.118971,0 3.836737,1.22698 3.836737,2.74053 z"
       transform="matrix(0.92829442,0,0,1.2996122,324.53334,78.26785)" />
    <path
       transform="matrix(0.92829442,0,0,1.2996122,344.53334,78.26785)"
       d="m 67.965056,402.85739 c 0,1.51355 -1.717766,2.74053 -3.836737,2.74053 -2.118972,0 -3.836737,-1.22698 -3.836737,-2.74053 0,-1.51355 1.717765,-2.74053 3.836737,-2.74053 2.118971,0 3.836737,1.22698 3.836737,2.74053 z"
       sodipodi:ry="2.7405264"
       sodipodi:rx="3.8367372"
       sodipodi:cy="402.85739"
       sodipodi:cx="64.128319"
       id="path3791"
       style="fill:#ffffff;fill-opacity:1;stroke:#000000;stroke-width:0.9104377;stroke-miterlimit:4;stroke-opacity:1;stroke-dasharray:none;stroke-dashoffset:0"
       sodipodi:type="arc" />
    <path
       sodipodi:type="arc"
       style="fill:#ffffff;fill-opacity:1;stroke:#000000;stroke-width:0.9104377;stroke-miterlimit:4;stroke-opacity:1;stroke-dasharray:none;stroke-dashoffset:0"
       id="path3793"
       sodipodi:cx="64.128319"
       sodipodi:cy="402.85739"
       sodipodi:rx="3.8367372"
       sodipodi:ry="2.7405264"
       d="m 67.965056,402.85739 c 0,1.51355 -1.717766,2.74053 -3.836737,2.74053 -2.118972,0 -3.836737,-1.22698 -3.836737,-2.74053 0,-1.51355 1.717765,-2.74053 3.836737,-2.74053 2.118971,0 3.836737,1.22698 3.836737,2.74053 z"
       transform="matrix(0.92829442,0,0,1.2996122,304.53334,-81.73215)" />
    <path
       transform="matrix(0.92829442,0,0,1.2996122,324.53334,-81.73215)"
       d="m 67.965056,402.85739 c 0,1.51355 -1.717766,2.74053 -3.836737,2.74053 -2.118972,0 -3.836737,-1.22698 -3.836737,-2.74053 0,-1.51355 1.717765,-2.74053 3.836737,-2.74053 2.118971,0 3.836737,1.22698 3.836737,2.74053 z"
       sodipodi:ry="2.7405264"
       sodipodi:rx="3.8367372"
       sodipodi:cy="402.85739"
       sodipodi:cx="64.128319"
       id="path3795"
       style="fill:#ffffff;fill-opacity:1;stroke:#000000;stroke-width:0.9104377;stroke-miterlimit:4;stroke-opacity:1;stroke-dasharray:none;stroke-dashoffset:0"
       sodipodi:type="arc" />
    <path
       sodipodi:type="arc"
       style="fill:#ffffff;fill-opacity:1;stroke:#000000;stroke-width:0.9104377;stroke-miterlimit:4;stroke-opacity:1;stroke-dasharray:none;stroke-dashoffset:0"
       id="path3797"
       sodipodi:cx="64.128319"
       sodipodi:cy="402.85739"
       sodipodi:rx="3.8367372"
       sodipodi:ry="2.7405264"
       d="m 67.965056,402.85739 c 0,1.51355 -1.717766,2.74053 -3.836737,2.74053 -2.118972,0 -3.836737,-1.22698 -3.836737,-2.74053 0,-1.51355 1.717765,-2.74053 3.836737,-2.74053 2.118971,0 3.836737,1.22698 3.836737,2.74053 z"
       transform="matrix(0.92829442,0,0,1.2996122,344.53334,-81.73215)" />
    <path
       style="fill:none;stroke:#000000;stroke-width:1px;stroke-linecap:butt;stroke-linejoin:miter;stroke-opacity:1"
       d="m 447.05981,462.08018 -23.37213,39.67825 42.12418,-7.33776"
       id="path3838"
       inkscape:connector-curvature="0" />
    <path
       style="fill:none;stroke:#000000;stroke-width:1px;stroke-linecap:butt;stroke-linejoin:miter;stroke-opacity:1"
       d="m 467.98601,500.94313 -44.29833,20.65443 45.65718,17.39321"
       id="path3840"
       inkscape:connector-curvature="0" />
    <path
       style="fill:none;stroke:#000000;stroke-width:1px;stroke-linecap:butt;stroke-linejoin:miter;stroke-opacity:1"
       d="m 466.89894,546.87207 -43.21126,-5.43538 25.00274,37.23234"
       id="path3842"
       inkscape:connector-curvature="0" />
    <path
       style="fill:none;stroke:#000000;stroke-width:1px;stroke-linecap:butt;stroke-linejoin:miter;stroke-opacity:1"
       d="m 459.01764,564.53704 -35.05819,-23.10035 -60.06092,-19.56736 60.33269,-20.1109 33.1558,-25.00273"
       id="path3844"
       inkscape:connector-curvature="0" />
    <path
       style="fill:none;stroke:#000000;stroke-width:1px;stroke-linecap:butt;stroke-linejoin:miter;stroke-opacity:1"
       d="m 470.43193,519.69518 -46.47248,1.90238 -60.87623,0.27177 -95.93441,-0.27177"
       id="path3846"
       inkscape:connector-curvature="0" />
    <path
       sodipodi:type="arc"
       style="fill:#ffffff;fill-opacity:1;stroke:#000000;stroke-width:0.9104377;stroke-miterlimit:4;stroke-opacity:1;stroke-dasharray:none;stroke-dashoffset:0"
       id="path3775"
       sodipodi:cx="64.128319"
       sodipodi:cy="402.85739"
       sodipodi:rx="3.8367372"
       sodipodi:ry="2.7405264"
       d="m 67.965056,402.85739 c 0,1.51355 -1.717766,2.74053 -3.836737,2.74053 -2.118972,0 -3.836737,-1.22698 -3.836737,-2.74053 0,-1.51355 1.717765,-2.74053 3.836737,-2.74053 2.118971,0 3.836737,1.22698 3.836737,2.74053 z"
       transform="matrix(0.92829442,0,0,1.2996122,304.53334,-1.73215)" />
    <path
       transform="matrix(0.92829442,0,0,1.2996122,364.53334,-1.73215)"
       d="m 67.965056,402.85739 c 0,1.51355 -1.717766,2.74053 -3.836737,2.74053 -2.118972,0 -3.836737,-1.22698 -3.836737,-2.74053 0,-1.51355 1.717765,-2.74053 3.836737,-2.74053 2.118971,0 3.836737,1.22698 3.836737,2.74053 z"
       sodipodi:ry="2.7405264"
       sodipodi:rx="3.8367372"
       sodipodi:cy="402.85739"
       sodipodi:cx="64.128319"
       id="path3781"
       style="fill:#ffffff;fill-opacity:1;stroke:#000000;stroke-width:0.9104377;stroke-miterlimit:4;stroke-opacity:1;stroke-dasharray:none;stroke-dashoffset:0"
       sodipodi:type="arc" />
    <path
       sodipodi:type="arc"
       style="fill:#ffffff;fill-opacity:1;stroke:#000000;stroke-width:0.9104377;stroke-miterlimit:4;stroke-opacity:1;stroke-dasharray:none;stroke-dashoffset:0"
       id="path3783"
       sodipodi:cx="64.128319"
       sodipodi:cy="402.85739"
       sodipodi:rx="3.8367372"
       sodipodi:ry="2.7405264"
       d="m 67.965056,402.85739 c 0,1.51355 -1.717766,2.74053 -3.836737,2.74053 -2.118972,0 -3.836737,-1.22698 -3.836737,-2.74053 0,-1.51355 1.717765,-2.74053 3.836737,-2.74053 2.118971,0 3.836737,1.22698 3.836737,2.74053 z"
       transform="matrix(0.92829442,0,0,1.2996122,364.53334,-21.73215)" />
    <path
       transform="matrix(0.92829442,0,0,1.2996122,364.53334,18.26785)"
       d="m 67.965056,402.85739 c 0,1.51355 -1.717766,2.74053 -3.836737,2.74053 -2.118972,0 -3.836737,-1.22698 -3.836737,-2.74053 0,-1.51355 1.717765,-2.74053 3.836737,-2.74053 2.118971,0 3.836737,1.22698 3.836737,2.74053 z"
       sodipodi:ry="2.7405264"
       sodipodi:rx="3.8367372"
       sodipodi:cy="402.85739"
       sodipodi:cx="64.128319"
       id="path3785"
       style="fill:#ffffff;fill-opacity:1;stroke:#000000;stroke-width:0.9104377;stroke-miterlimit:4;stroke-opacity:1;stroke-dasharray:none;stroke-dashoffset:0"
       sodipodi:type="arc" />
    <text
       xml:space="preserve"
       style="font-size:14px;font-style:normal;font-variant:normal;font-weight:normal;font-stretch:normal;line-height:125%;letter-spacing:0px;word-spacing:0px;fill:#000000;fill-opacity:1;stroke:none;font-family:Arial;-inkscape-font-specification:Arial"
       x="409.94781"
       y="350.99728"
       id="text3848"
       sodipodi:linespacing="125%"><tspan
         sodipodi:role="line"
         id="tspan3850"
         x="409.94781"
         y="350.99728">BOUNDARY OF ECONOMIC SYSTEM</tspan></text>
    <text
       xml:space="preserve"
       style="font-size:14px;font-style:normal;font-variant:normal;font-weight:normal;font-stretch:normal;text-align:center;line-height:125%;letter-spacing:0px;word-spacing:0px;text-anchor:middle;fill:#000000;fill-opacity:1;stroke:none;font-family:Arial;-inkscape-font-specification:Arial"
       x="592.2027"
       y="507.56299"
       id="text3852"
       sodipodi:linespacing="125%"><tspan
         sodipodi:role="line"
         id="tspan3854"
         x="592.2027"
         y="507.56299">PORTION OF ECONOMIC</tspan><tspan
         sodipodi:role="line"
         x="594.1441"
         y="525.06299"
         id="tspan3856">SYSTEM DESCRIBED BY </tspan><tspan
         sodipodi:role="line"
         x="592.2027"
         y="542.56299"
         id="tspan3858">INPUT-OUTPUT ANALYSIS</tspan></text>
    <text
       xml:space="preserve"
       style="font-size:14px;font-style:normal;font-variant:normal;font-weight:normal;font-stretch:normal;line-height:125%;letter-spacing:0px;word-spacing:0px;fill:#000000;fill-opacity:1;stroke:none;font-family:Arial;-inkscape-font-specification:Arial"
       x="91.21875"
       y="402.1752"
       id="text3860"
       sodipodi:linespacing="125%"><tspan
         sodipodi:role="line"
         id="tspan3862"
         x="91.21875"
         y="402.1752">SYSTEM BOUNDARY</tspan><tspan
         sodipodi:role="line"
         x="91.21875"
         y="419.6752"
         id="tspan3864">AROUND THE ITEM</tspan><tspan
         sodipodi:role="line"
         x="91.21875"
         y="437.1752"
         id="tspan3868">BEING ANALYSED</tspan></text>
  </g>
</svg>
