<?xml version="1.0" encoding="UTF-8" standalone="no"?>
<!-- Created with Inkscape (http://www.inkscape.org/) -->

<svg
   xmlns:dc="http://purl.org/dc/elements/1.1/"
   xmlns:cc="http://creativecommons.org/ns#"
   xmlns:rdf="http://www.w3.org/1999/02/22-rdf-syntax-ns#"
   xmlns:svg="http://www.w3.org/2000/svg"
   xmlns="http://www.w3.org/2000/svg"
   xmlns:sodipodi="http://sodipodi.sourceforge.net/DTD/sodipodi-0.dtd"
   xmlns:inkscape="http://www.inkscape.org/namespaces/inkscape"
   id="svg2"
   version="1.1"
   inkscape:version="0.48.1 r9760"
   width="1450.7938"
   height="918.51944"
   xml:space="preserve"
   sodipodi:docname="2_sector_materials.svg"><metadata
     id="metadata8"><rdf:RDF><cc:Work
         rdf:about=""><dc:format>image/svg+xml</dc:format><dc:type
           rdf:resource="http://purl.org/dc/dcmitype/StillImage" /><dc:title /></cc:Work></rdf:RDF></metadata><defs
     id="defs6" /><sodipodi:namedview
     pagecolor="#ffffff"
     bordercolor="#666666"
     borderopacity="1"
     objecttolerance="10"
     gridtolerance="10"
     guidetolerance="10"
     inkscape:pageopacity="0"
     inkscape:pageshadow="2"
     inkscape:window-width="1920"
     inkscape:window-height="1178"
     id="namedview4"
     showgrid="false"
     inkscape:zoom="1.0451602"
     inkscape:cx="725.39691"
     inkscape:cy="459.25974"
     inkscape:window-x="0"
     inkscape:window-y="0"
     inkscape:window-maximized="1"
     inkscape:current-layer="g12" /><g
     id="g10"
     inkscape:groupmode="layer"
     inkscape:label="2_sector_materials"
     transform="matrix(1.25,0,0,-1.25,0,918.51944)"><g
       id="g12"><path
   d="m 814.359,380.855 130.594,0"
   style="fill:none;stroke:#ff0000;stroke-opacity:1;stroke-width:1.6;stroke-linecap:butt;stroke-linejoin:miter;stroke-miterlimit:4;stroke-dasharray:none"
   id="path14" /><g
   id="g16"
   transform="matrix(-1,0,0,-1,0,734.81555)"><path
     d="m -928.953,353.961 6.398,-6.399 -22.398,6.399 22.398,6.402 -6.398,-6.402 z"
     style="fill:#000000;fill-opacity:1;fill-rule:evenodd;stroke:#000000;stroke-opacity:1;stroke-width:1.6;stroke-linecap:butt;stroke-linejoin:miter;stroke-miterlimit:4;stroke-dasharray:none"
     id="path18" /></g><path
   d="m 823.496,380.792 0,166.609 -255.461,0 0,-112.343"
   style="fill:none;stroke:#2a7fff;stroke-opacity:1;stroke-width:1.6;stroke-linecap:butt;stroke-linejoin:miter;stroke-miterlimit:4;stroke-dasharray:none"
   id="path20" /><g
   id="g22"
   transform="matrix(0,1,-1,0,0,734.81555)"><path
     d="m -354.023,-832.547 -9.051,9.051 9.051,9.051 9.05,-9.051 -9.05,-9.051 z"
     style="fill:#ffffff;fill-opacity:1;fill-rule:evenodd;stroke:#000000;stroke-opacity:1;stroke-width:1.6;stroke-linecap:butt;stroke-linejoin:miter;stroke-miterlimit:4;stroke-dasharray:none"
     id="path24" /></g><g
   id="g26"
   transform="matrix(0,1,-1,0,0,734.81555)"><path
     d="m -283.758,-568.035 6.403,-6.399 -22.403,6.399 22.403,6.402 -6.403,-6.402 z"
     style="fill:#000000;fill-opacity:1;fill-rule:evenodd;stroke:#000000;stroke-opacity:1;stroke-width:1.6;stroke-linecap:butt;stroke-linejoin:miter;stroke-miterlimit:4;stroke-dasharray:none"
     id="path28" /></g><path
   d="m 816.332,534.206 14.543,0 0,-13.012 -14.543,0 0,13.012 z"
   style="fill:#ffffff;fill-opacity:1;fill-rule:nonzero;stroke:none"
   id="path30" /><path
   d="m 842.695,380.792 0,185.809 -399.461,0 0,-163.371 48,-0.172"
   style="fill:none;stroke:#ff0000;stroke-opacity:1;stroke-width:1.6;stroke-linecap:butt;stroke-linejoin:miter;stroke-miterlimit:4;stroke-dasharray:none"
   id="path32" /><g
   id="g34"
   transform="matrix(0,1,-1,0,0,734.81555)"><path
     d="m -354.023,-851.746 -9.051,9.051 9.051,9.05 9.05,-9.05 -9.05,-9.051 z"
     style="fill:#ffffff;fill-opacity:1;fill-rule:evenodd;stroke:#000000;stroke-opacity:1;stroke-width:1.6;stroke-linecap:butt;stroke-linejoin:miter;stroke-miterlimit:4;stroke-dasharray:none"
     id="path36" /></g><g
   id="g38"
   transform="matrix(-1,0.00358573,-0.00358573,-1,0,734.81555)"><path
     d="m -476.418,329.991 6.402,-6.399 -22.402,6.4 22.399,6.401 -6.399,-6.402 z"
     style="fill:#000000;fill-opacity:1;fill-rule:evenodd;stroke:#000000;stroke-opacity:1;stroke-width:1.59999;stroke-linecap:butt;stroke-linejoin:miter;stroke-miterlimit:4;stroke-dasharray:none"
     id="path40" /></g><path
   d="m 835.531,534.206 14.543,0 0,-13.012 -14.543,0 0,13.012 z"
   style="fill:#ffffff;fill-opacity:1;fill-rule:nonzero;stroke:none"
   id="path42" /><path
   d="m 835.531,553.409 14.543,0 0,-13.016 -14.543,0 0,13.016 z"
   style="fill:#ffffff;fill-opacity:1;fill-rule:nonzero;stroke:none"
   id="path44" /><path
   d="m 435.531,553.409 14.543,0 0,-13.016 -14.543,0 0,13.016 z"
   style="fill:#ffffff;fill-opacity:1;fill-rule:nonzero;stroke:none"
   id="path46" /><g
   id="g48"
   transform="matrix(0,-1,-1,0,0,734.81555)"><path
     d="m 599.797,-1120.969 87.883,0 c 13.816,0 24.937,12.317 24.937,27.617 l 0,1031.012 c 0,15.301 -11.121,27.617 -24.937,27.617 l -87.883,0 c -13.817,0 -24.938,-12.316 -24.938,-27.617 l 0,-1031.012 c 0,-15.3 11.121,-27.617 24.938,-27.617 z"
     style="fill:none;stroke:#000000;stroke-opacity:1;stroke-width:1.6;stroke-linecap:butt;stroke-linejoin:miter;stroke-miterlimit:4;stroke-dasharray:none"
     id="path50" /></g><text
   transform="matrix(1,0,0,-1,547.0832,88.277746)"
   id="text52"><tspan
     style="fill:#000000;fill-opacity:1;fill-rule:nonzero;stroke:none;font-family:Arial;font-variant:normal;font-weight:normal;font-size:25.6;writing-mode:lr;-inkscape-font-specification:ArialMT"
     x="0 17.0752 31.3088 39.8592 46.9504"
     y="0"
     sodipodi:role="line"
     id="tspan54">Earth</tspan><tspan
     style="fill:#000000;fill-opacity:1;fill-rule:nonzero;stroke:none;font-family:Arial;font-variant:normal;font-weight:normal;font-size:25.6;writing-mode:lr;-inkscape-font-specification:ArialMT"
     x="14.9499904 23.5003904 37.7339904"
     y="32"
     sodipodi:role="line"
     id="tspan56">(1)</tspan></text>

<path
   d="m 491.125,364.417 -340.262,0 0,-235.547"
   style="fill:none;stroke:#ff0000;stroke-opacity:1;stroke-width:1.6;stroke-linecap:butt;stroke-linejoin:miter;stroke-miterlimit:4;stroke-dasharray:none"
   id="path58" /><g
   id="g60"
   transform="matrix(-1,0,0,-1,0,734.81555)"><path
     d="m -475.125,370.398 6.398,-6.398 -22.398,6.398 22.398,6.403 -6.398,-6.403 z"
     style="fill:#000000;fill-opacity:1;fill-rule:evenodd;stroke:#000000;stroke-opacity:1;stroke-width:1.6;stroke-linecap:butt;stroke-linejoin:miter;stroke-miterlimit:4;stroke-dasharray:none"
     id="path62" /></g><text
   transform="matrix(1,0,0,-1,157.91939,220.07853)"
   id="text64"><tspan
     style="fill:#000000;fill-opacity:1;fill-rule:nonzero;stroke:none;font-family:Arial;font-variant:normal;font-weight:normal;font-size:25.6;writing-mode:lr;-inkscape-font-specification:ArialMT"
     x="0"
     y="0"
     id="tspan66">R</tspan></text>

<text
   transform="matrix(1,0,0,-1,176.41939,214.95853)"
   id="text68"><tspan
     style="fill:#000000;fill-opacity:1;fill-rule:nonzero;stroke:none;font-family:Arial;font-variant:normal;font-weight:normal;font-size:13.31211;writing-mode:lr;-inkscape-font-specification:ArialMT"
     x="0 7.40153316"
     y="0"
     sodipodi:role="line"
     id="tspan70">13</tspan></text>

<path
   d="m 170.688,244.167 c 0,-1.105 -0.895,-2 -2,-2 -1.102,0 -2,0.895 -2,2 0,1.106 0.898,2 2,2 1.105,0 2,-0.894 2,-2 z"
   style="fill:#000000;fill-opacity:1;fill-rule:nonzero;stroke:none"
   id="path72" /><text
   transform="matrix(1,0,0,-1,401.11934,328.87853)"
   id="text74"><tspan
     style="fill:#000000;fill-opacity:1;fill-rule:nonzero;stroke:none;font-family:Arial;font-variant:normal;font-weight:normal;font-size:25.6;writing-mode:lr;-inkscape-font-specification:ArialMT"
     x="0"
     y="0"
     id="tspan76">R</tspan></text>

<text
   transform="matrix(1,0,0,-1,419.61934,323.75853)"
   id="text78"><tspan
     style="fill:#000000;fill-opacity:1;fill-rule:nonzero;stroke:none;font-family:Arial;font-variant:normal;font-weight:normal;font-size:13.31211;writing-mode:lr;-inkscape-font-specification:ArialMT"
     x="0 7.40153316"
     y="0"
     sodipodi:role="line"
     id="tspan80">13</tspan></text>

<path
   d="m 413.891,352.968 c 0,-1.106 -0.899,-2 -2,-2 -1.106,0 -2,0.894 -2,2 0,1.101 0.894,2 2,2 1.101,0 2,-0.899 2,-2 z"
   style="fill:#000000;fill-opacity:1;fill-rule:nonzero;stroke:none"
   id="path82" /><text
   transform="matrix(1,0,0,-1,988.56355,488.8175)"
   id="text86"><tspan
     style="fill:#000000;fill-opacity:1;fill-rule:nonzero;stroke:none;font-family:Arial;font-variant:normal;font-weight:normal;font-size:25.6;writing-mode:lr;-inkscape-font-specification:ArialMT"
     x="0 17.0752 31.3088 44.1088 49.8176 64.0512 71.1424"
     y="0"
     sodipodi:role="line"
     id="tspan88">Society</tspan><tspan
     style="fill:#000000;fill-opacity:1;fill-rule:nonzero;stroke:none;font-family:Arial;font-variant:normal;font-weight:normal;font-size:25.6;writing-mode:lr;-inkscape-font-specification:ArialMT"
     x="26.324992 34.875392 49.108992"
     y="32"
     sodipodi:role="line"
     id="tspan90">(2)</tspan></text>

<path
   d="m 946.871,357.484 0,260.296 85.422,48 85.418,-48 0,-260.046 -85.418,-48.125 -85.422,47.875 z"
   style="fill:none;stroke:#000000;stroke-opacity:1;stroke-width:2.4;stroke-linecap:butt;stroke-linejoin:miter;stroke-miterlimit:4;stroke-dasharray:none"
   id="path92" /><path
   d="m 1032.293,312.761 0,-149.793"
   style="fill:none;stroke:#2a7fff;stroke-opacity:1;stroke-width:1.6;stroke-linecap:butt;stroke-linejoin:miter;stroke-miterlimit:4;stroke-dasharray:6.4,6.4;stroke-dashoffset:0"
   id="path94" /><g
   id="g96"
   transform="matrix(0,1,-1,0,0,734.81555)"><path
     d="m -555.848,-1032.293 6.403,-6.398 -22.403,6.398 22.403,6.402 -6.403,-6.402 z"
     style="fill:#000000;fill-opacity:1;fill-rule:evenodd;stroke:#000000;stroke-opacity:1;stroke-width:1.6;stroke-linecap:butt;stroke-linejoin:miter;stroke-miterlimit:4;stroke-dasharray:none"
     id="path98" /></g><text
   transform="matrix(1,0,0,-1,1016.7757,124.07847)"
   id="text100"><tspan
     style="fill:#000000;fill-opacity:1;fill-rule:nonzero;stroke:none;font-family:Arial;font-variant:normal;font-weight:normal;font-size:25.6;writing-mode:lr;-inkscape-font-specification:ArialMT"
     x="0"
     y="0"
     id="tspan102">S</tspan></text>

<text
   transform="matrix(1,0,0,-1,1033.8757,118.95847)"
   id="text104"><tspan
     style="fill:#000000;fill-opacity:1;fill-rule:nonzero;stroke:none;font-family:Arial;font-variant:normal;font-weight:normal;font-size:13.31211;writing-mode:lr;-inkscape-font-specification:ArialMT"
     x="0 7.40153316"
     y="0"
     sodipodi:role="line"
     id="tspan106">21</tspan></text>

<path
   d="m 1026.543,149.765 c 0,-1.102 -0.895,-2 -2,-2 -1.102,0 -2,0.898 -2,2 0,1.105 0.898,2 2,2 1.105,0 2,-0.895 2,-2 z"
   style="fill:#000000;fill-opacity:1;fill-rule:nonzero;stroke:none"
   id="path108" /><path
   d="m 558.691,330.362 0,-167.394"
   style="fill:none;stroke:#2a7fff;stroke-opacity:1;stroke-width:1.6;stroke-linecap:butt;stroke-linejoin:miter;stroke-miterlimit:4;stroke-dasharray:6.4,6.4;stroke-dashoffset:0"
   id="path110" /><g
   id="g112"
   transform="matrix(0,1,-1,0,0,734.81555)"><path
     d="m -555.848,-558.691 6.403,-6.399 -22.403,6.399 22.403,6.398 -6.403,-6.398 z"
     style="fill:#000000;fill-opacity:1;fill-rule:evenodd;stroke:#000000;stroke-opacity:1;stroke-width:1.6;stroke-linecap:butt;stroke-linejoin:miter;stroke-miterlimit:4;stroke-dasharray:none"
     id="path114" /></g><text
   transform="matrix(1,0,0,-1,567.17571,220.07847)"
   id="text116"><tspan
     style="fill:#000000;fill-opacity:1;fill-rule:nonzero;stroke:none;font-family:Arial;font-variant:normal;font-weight:normal;font-size:25.6;writing-mode:lr;-inkscape-font-specification:ArialMT"
     x="0"
     y="0"
     id="tspan118">S</tspan></text>

<text
   transform="matrix(1,0,0,-1,584.27571,214.95847)"
   id="text120"><tspan
     style="fill:#000000;fill-opacity:1;fill-rule:nonzero;stroke:none;font-family:Arial;font-variant:normal;font-weight:normal;font-size:13.31211;writing-mode:lr;-inkscape-font-specification:ArialMT"
     x="0 7.40153316"
     y="0"
     sodipodi:role="line"
     id="tspan122">31</tspan></text>

<path
   d="m 576.945,245.765 c 0,-1.102 -0.894,-2 -2,-2 -1.105,0 -2,0.898 -2,2 0,1.105 0.895,2 2,2 1.106,0 2,-0.895 2,-2 z"
   style="fill:#000000;fill-opacity:1;fill-rule:nonzero;stroke:none"
   id="path124" /><path
   d="m 520.293,330.362 0,-167.394"
   style="fill:none;stroke:#ff0000;stroke-opacity:1;stroke-width:1.6;stroke-linecap:butt;stroke-linejoin:miter;stroke-miterlimit:4;stroke-dasharray:6.4,6.4;stroke-dashoffset:0"
   id="path126" /><g
   id="g128"
   transform="matrix(0,1,-1,0,0,734.81555)"><path
     d="m -555.848,-520.293 6.403,-6.398 -22.403,6.398 22.403,6.402 -6.403,-6.402 z"
     style="fill:#000000;fill-opacity:1;fill-rule:evenodd;stroke:#000000;stroke-opacity:1;stroke-width:1.6;stroke-linecap:butt;stroke-linejoin:miter;stroke-miterlimit:4;stroke-dasharray:none"
     id="path130" /></g><text
   transform="matrix(1,0,0,-1,479.37572,220.07847)"
   id="text132"><tspan
     style="fill:#000000;fill-opacity:1;fill-rule:nonzero;stroke:none;font-family:Arial;font-variant:normal;font-weight:normal;font-size:25.6;writing-mode:lr;-inkscape-font-specification:ArialMT"
     x="0"
     y="0"
     id="tspan134">R</tspan></text>

<text
   transform="matrix(1,0,0,-1,497.87572,214.95847)"
   id="text136"><tspan
     style="fill:#000000;fill-opacity:1;fill-rule:nonzero;stroke:none;font-family:Arial;font-variant:normal;font-weight:normal;font-size:13.31211;writing-mode:lr;-inkscape-font-specification:ArialMT"
     x="0 7.40153316"
     y="0"
     sodipodi:role="line"
     id="tspan138">31</tspan></text>

<path
   d="m 490.543,245.765 c 0,-1.102 -0.895,-2 -2,-2 -1.102,0 -2,0.898 -2,2 0,1.105 0.898,2 2,2 1.105,0 2,-0.895 2,-2 z"
   style="fill:#000000;fill-opacity:1;fill-rule:nonzero;stroke:none"
   id="path140" /><path
   d="m 625.891,330.362 0,-167.394"
   style="fill:none;stroke:#000000;stroke-opacity:1;stroke-width:1.6;stroke-linecap:butt;stroke-linejoin:miter;stroke-miterlimit:4;stroke-dasharray:6.4,6.4;stroke-dashoffset:0"
   id="path142" /><g
   id="g144"
   transform="matrix(0,1,-1,0,0,734.81555)"><path
     d="m -555.848,-625.891 6.403,-6.402 -22.403,6.402 22.403,6.399 -6.403,-6.399 z"
     style="fill:#000000;fill-opacity:1;fill-rule:evenodd;stroke:#000000;stroke-opacity:1;stroke-width:1.6;stroke-linecap:butt;stroke-linejoin:miter;stroke-miterlimit:4;stroke-dasharray:none"
     id="path146" /></g><text
   transform="matrix(1,0,0,-1,634.37572,220.07847)"
   id="text148"><tspan
     style="fill:#000000;fill-opacity:1;fill-rule:nonzero;stroke:none;font-family:Arial;font-variant:normal;font-weight:normal;font-size:25.6;writing-mode:lr;-inkscape-font-specification:ArialMT"
     x="0"
     y="0"
     id="tspan150">K</tspan></text>

<text
   transform="matrix(1,0,0,-1,651.47572,214.95847)"
   id="text152"><tspan
     style="fill:#000000;fill-opacity:1;fill-rule:nonzero;stroke:none;font-family:Arial;font-variant:normal;font-weight:normal;font-size:13.31211;writing-mode:lr;-inkscape-font-specification:ArialMT"
     x="0 7.40153316"
     y="0"
     sodipodi:role="line"
     id="tspan154">31</tspan></text>

<path
   d="m 644.145,245.765 c 0,-1.102 -0.895,-2 -2,-2 -1.106,0 -2,0.898 -2,2 0,1.105 0.894,2 2,2 1.105,0 2,-0.895 2,-2 z"
   style="fill:#000000;fill-opacity:1;fill-rule:nonzero;stroke:none"
   id="path156" /><path
   d="m 1000.293,328.761 0,-165.793"
   style="fill:none;stroke:#ff0000;stroke-opacity:1;stroke-width:1.6;stroke-linecap:butt;stroke-linejoin:miter;stroke-miterlimit:4;stroke-dasharray:6.4,6.4;stroke-dashoffset:0"
   id="path158" /><g
   id="g160"
   transform="matrix(0,1,-1,0,0,734.81555)"><path
     d="m -555.848,-1000.293 6.403,-6.398 -22.403,6.398 22.403,6.402 -6.403,-6.402 z"
     style="fill:#000000;fill-opacity:1;fill-rule:evenodd;stroke:#000000;stroke-opacity:1;stroke-width:1.6;stroke-linecap:butt;stroke-linejoin:miter;stroke-miterlimit:4;stroke-dasharray:none"
     id="path162" /></g><text
   transform="matrix(1,0,0,-1,959.37572,220.07847)"
   id="text164"><tspan
     style="fill:#000000;fill-opacity:1;fill-rule:nonzero;stroke:none;font-family:Arial;font-variant:normal;font-weight:normal;font-size:25.6;writing-mode:lr;-inkscape-font-specification:ArialMT"
     x="0"
     y="0"
     id="tspan166">R</tspan></text>

<text
   transform="matrix(1,0,0,-1,977.87572,214.95847)"
   id="text168"><tspan
     style="fill:#000000;fill-opacity:1;fill-rule:nonzero;stroke:none;font-family:Arial;font-variant:normal;font-weight:normal;font-size:13.31211;writing-mode:lr;-inkscape-font-specification:ArialMT"
     x="0 7.40153316"
     y="0"
     sodipodi:role="line"
     id="tspan170">21</tspan></text>

<path
   d="m 970.543,245.765 c 0,-1.102 -0.895,-2 -2,-2 -1.102,0 -2,0.898 -2,2 0,1.105 0.898,2 2,2 1.105,0 2,-0.895 2,-2 z"
   style="fill:#000000;fill-opacity:1;fill-rule:nonzero;stroke:none"
   id="path172" /><path
   d="m 1064.293,328.761 0,-165.793"
   style="fill:none;stroke:#000000;stroke-opacity:1;stroke-width:1.6;stroke-linecap:butt;stroke-linejoin:miter;stroke-miterlimit:4;stroke-dasharray:6.4,6.4;stroke-dashoffset:0"
   id="path174" /><g
   id="g176"
   transform="matrix(0,1,-1,0,0,734.81555)"><path
     d="m -555.848,-1064.293 6.403,-6.398 -22.403,6.398 22.403,6.402 -6.403,-6.402 z"
     style="fill:#000000;fill-opacity:1;fill-rule:evenodd;stroke:#000000;stroke-opacity:1;stroke-width:1.6;stroke-linecap:butt;stroke-linejoin:miter;stroke-miterlimit:4;stroke-dasharray:none"
     id="path178" /></g><text
   transform="matrix(1,0,0,-1,1071.1757,220.07847)"
   id="text180"><tspan
     style="fill:#000000;fill-opacity:1;fill-rule:nonzero;stroke:none;font-family:Arial;font-variant:normal;font-weight:normal;font-size:25.6;writing-mode:lr;-inkscape-font-specification:ArialMT"
     x="0"
     y="0"
     id="tspan182">K</tspan></text>

<text
   transform="matrix(1,0,0,-1,1088.2757,214.95847)"
   id="text184"><tspan
     style="fill:#000000;fill-opacity:1;fill-rule:nonzero;stroke:none;font-family:Arial;font-variant:normal;font-weight:normal;font-size:13.31211;writing-mode:lr;-inkscape-font-specification:ArialMT"
     x="0 7.40153316"
     y="0"
     sodipodi:role="line"
     id="tspan186">21</tspan></text>

<path
   d="m 1080.945,245.765 c 0,-1.102 -0.894,-2 -2,-2 -1.105,0 -2,0.898 -2,2 0,1.105 0.895,2 2,2 1.106,0 2,-0.895 2,-2 z"
   style="fill:#000000;fill-opacity:1;fill-rule:nonzero;stroke:none"
   id="path188" /><path
   d="m 678.359,380.855 114.594,0"
   style="fill:none;stroke:#800080;stroke-opacity:1;stroke-width:1.60000000000000009;stroke-linecap:butt;stroke-linejoin:miter;stroke-miterlimit:4;stroke-dasharray:none"
   id="path192" /><g
   id="g194"
   transform="matrix(-1,0,0,-1,0,734.81555)"><path
     d="m -776.953,353.961 6.398,-6.399 -22.398,6.399 22.398,6.402 -6.398,-6.402 z"
     style="fill:#000000;fill-opacity:1;fill-rule:evenodd;stroke:#000000;stroke-opacity:1;stroke-width:1.6;stroke-linecap:butt;stroke-linejoin:miter;stroke-miterlimit:4;stroke-dasharray:none"
     id="path196" /></g><path
   d="m 494.25,434.273 137.102,0 c 0,0 48,-0.211 48,-51.821 0,-51.609 -48,-51.816 -48,-51.816 l -136.848,0 -0.254,103.637 z"
   style="fill:none;stroke:#000000;stroke-opacity:1;stroke-width:2.4;stroke-linecap:butt;stroke-linejoin:miter;stroke-miterlimit:4;stroke-dasharray:none"
   id="path198" /><text
   transform="matrix(1,0,0,-1,547.27517,390.20448)"
   id="text202"><tspan
     style="fill:#000000;fill-opacity:1;fill-rule:nonzero;stroke:none;font-family:Arial;font-variant:normal;font-weight:normal;font-size:25.6;writing-mode:lr;-inkscape-font-specification:ArialMT"
     x="0 17.0752 31.3088 44.1088 51.2 65.4336"
     y="0"
     sodipodi:role="line"
     id="tspan204">Sector</tspan><tspan
     style="fill:#000000;fill-opacity:1;fill-rule:nonzero;stroke:none;font-family:Arial;font-variant:normal;font-weight:normal;font-size:25.6;writing-mode:lr;-inkscape-font-specification:ArialMT"
     x="21.3499904 29.9003904 44.1339904"
     y="32"
     sodipodi:role="line"
     id="tspan206">(3)</tspan></text>

<path
   d="m 804.297,380.792 0,145.809 -178.664,0 0,-91.543"
   style="fill:none;stroke:#000000;stroke-opacity:1;stroke-width:1.6;stroke-linecap:butt;stroke-linejoin:miter;stroke-miterlimit:4;stroke-dasharray:none"
   id="path208" /><g
   id="g210"
   transform="matrix(0,1,-1,0,0,734.81555)"><path
     d="m -354.023,-813.348 -9.051,9.051 9.051,9.051 9.05,-9.051 -9.05,-9.051 z"
     style="fill:#ffffff;fill-opacity:1;fill-rule:evenodd;stroke:#000000;stroke-opacity:1;stroke-width:1.6;stroke-linecap:butt;stroke-linejoin:miter;stroke-miterlimit:4;stroke-dasharray:none"
     id="path212" /></g><g
   id="g214"
   transform="matrix(0,1,-1,0,0,734.81555)"><path
     d="m -283.758,-625.633 6.403,-6.402 -22.403,6.402 22.403,6.399 -6.403,-6.399 z"
     style="fill:#000000;fill-opacity:1;fill-rule:evenodd;stroke:#000000;stroke-opacity:1;stroke-width:1.6;stroke-linecap:butt;stroke-linejoin:miter;stroke-miterlimit:4;stroke-dasharray:none"
     id="path216" /></g><text
   transform="matrix(1,0,0,-1,708.69896,392.581)"
   id="text218"><tspan
     style="fill:#000000;fill-opacity:1;fill-rule:nonzero;stroke:none;font-family:Arial;font-variant:normal;font-weight:normal;font-size:25.6;writing-mode:lr;-inkscape-font-specification:ArialMT"
     x="0"
     y="0"
     id="tspan220">P</tspan></text>

<text
   transform="matrix(1,0,0,-1,725.79896,387.461)"
   id="text222"><tspan
     style="fill:#000000;fill-opacity:1;fill-rule:nonzero;stroke:none;font-family:Arial;font-variant:normal;font-weight:normal;font-size:13.31211;writing-mode:lr;-inkscape-font-specification:ArialMT"
     x="0"
     y="0"
     id="tspan224">3</tspan></text>

<text
   transform="matrix(1,0,0,-1,574.88878,489.46551)"
   id="text226"><tspan
     style="fill:#000000;fill-opacity:1;fill-rule:nonzero;stroke:none;font-family:Arial;font-variant:normal;font-weight:normal;font-size:25.6;writing-mode:lr;-inkscape-font-specification:ArialMT"
     x="0"
     y="0"
     id="tspan228">S</tspan></text>

<text
   transform="matrix(1,0,0,-1,591.98878,484.34551)"
   id="text230"><tspan
     style="fill:#000000;fill-opacity:1;fill-rule:nonzero;stroke:none;font-family:Arial;font-variant:normal;font-weight:normal;font-size:13.31211;writing-mode:lr;-inkscape-font-specification:ArialMT"
     x="0 7.40153316"
     y="0"
     sodipodi:role="line"
     id="tspan232">33</tspan></text>

<path
   d="m 586.258,513.554 c 0,-1.106 -0.895,-2 -2,-2 -1.106,0 -2,0.894 -2,2 0,1.105 0.894,2 2,2 1.105,0 2,-0.895 2,-2 z"
   style="fill:#000000;fill-opacity:1;fill-rule:nonzero;stroke:none"
   id="path234" /><path
   d="m 719.059,417.554 c 0,-1.106 -0.895,-2 -2,-2 -1.106,0 -2,0.894 -2,2 0,1.105 0.894,2 2,2 1.105,0 2,-0.895 2,-2 z"
   style="fill:#000000;fill-opacity:1;fill-rule:nonzero;stroke:none"
   id="path236" /><text
   transform="matrix(1,0,0,-1,861.2889,562.18097)"
   id="text238"><tspan
     style="fill:#000000;fill-opacity:1;fill-rule:nonzero;stroke:none;font-family:Arial;font-variant:normal;font-weight:normal;font-size:25.6;writing-mode:lr;-inkscape-font-specification:ArialMT"
     x="0"
     y="0"
     id="tspan240">S</tspan></text>

<text
   transform="matrix(1,0,0,-1,878.3889,557.06097)"
   id="text242"><tspan
     style="fill:#000000;fill-opacity:1;fill-rule:nonzero;stroke:none;font-family:Arial;font-variant:normal;font-weight:normal;font-size:13.31211;writing-mode:lr;-inkscape-font-specification:ArialMT"
     x="0 7.40153316"
     y="0"
     sodipodi:role="line"
     id="tspan244">32</tspan></text>

<path
   d="m 872.656,587.151 c 0,-1.101 -0.894,-2 -2,-2 -1.101,0 -2,0.899 -2,2 0,1.106 0.899,2 2,2 1.106,0 2,-0.894 2,-2 z"
   style="fill:#000000;fill-opacity:1;fill-rule:nonzero;stroke:none"
   id="path246" /><text
   transform="matrix(1,0,0,-1,632.48878,489.46551)"
   id="text248"><tspan
     style="fill:#000000;fill-opacity:1;fill-rule:nonzero;stroke:none;font-family:Arial;font-variant:normal;font-weight:normal;font-size:25.6;writing-mode:lr;-inkscape-font-specification:ArialMT"
     x="0"
     y="0"
     id="tspan250">K</tspan></text>

<text
   transform="matrix(1,0,0,-1,649.58878,484.34551)"
   id="text252"><tspan
     style="fill:#000000;fill-opacity:1;fill-rule:nonzero;stroke:none;font-family:Arial;font-variant:normal;font-weight:normal;font-size:13.31211;writing-mode:lr;-inkscape-font-specification:ArialMT"
     x="0 7.40153316"
     y="0"
     sodipodi:role="line"
     id="tspan254">33</tspan></text>

<path
   d="m 643.859,513.554 c 0,-1.106 -0.898,-2 -2,-2 -1.105,0 -2,0.894 -2,2 0,1.105 0.895,2 2,2 1.102,0 2,-0.895 2,-2 z"
   style="fill:#000000;fill-opacity:1;fill-rule:nonzero;stroke:none"
   id="path256" /><path
   d="m 804.758,526.452 140.195,0"
   style="fill:none;stroke:#000000;stroke-opacity:1;stroke-width:1.6;stroke-linecap:butt;stroke-linejoin:miter;stroke-miterlimit:4;stroke-dasharray:none"
   id="path258" /><g
   id="g260"
   transform="translate(0,734.81555)"><path
     d="m 804.758,-217.414 -9.051,9.051 9.051,9.051 9.051,-9.051 -9.051,-9.051 z"
     style="fill:#ffffff;fill-opacity:1;fill-rule:evenodd;stroke:#000000;stroke-opacity:1;stroke-width:1.6;stroke-linecap:butt;stroke-linejoin:miter;stroke-miterlimit:4;stroke-dasharray:none"
     id="path262" /></g><g
   id="g264"
   transform="matrix(-1,0,0,-1,0,734.81555)"><path
     d="m -928.953,208.363 6.398,-6.402 -22.398,6.402 22.398,6.399 -6.398,-6.399 z"
     style="fill:#000000;fill-opacity:1;fill-rule:evenodd;stroke:#000000;stroke-opacity:1;stroke-width:1.6;stroke-linecap:butt;stroke-linejoin:miter;stroke-miterlimit:4;stroke-dasharray:none"
     id="path266" /></g><path
   d="m 823.961,547.253 120.992,0"
   style="fill:none;stroke:#2a7fff;stroke-opacity:1;stroke-width:1.6;stroke-linecap:butt;stroke-linejoin:miter;stroke-miterlimit:4;stroke-dasharray:none"
   id="path268" /><g
   id="g270"
   transform="translate(0,734.81555)"><path
     d="m 823.961,-196.613 -9.055,9.051 9.055,9.05 9.051,-9.05 -9.051,-9.051 z"
     style="fill:#ffffff;fill-opacity:1;fill-rule:evenodd;stroke:#000000;stroke-opacity:1;stroke-width:1.6;stroke-linecap:butt;stroke-linejoin:miter;stroke-miterlimit:4;stroke-dasharray:none"
     id="path272" /></g><g
   id="g274"
   transform="matrix(-1,0,0,-1,0,734.81555)"><path
     d="m -928.953,187.562 6.398,-6.398 -22.398,6.398 22.398,6.399 -6.398,-6.399 z"
     style="fill:#000000;fill-opacity:1;fill-rule:evenodd;stroke:#000000;stroke-opacity:1;stroke-width:1.6;stroke-linecap:butt;stroke-linejoin:miter;stroke-miterlimit:4;stroke-dasharray:none"
     id="path276" /></g><path
   d="m 548.727,434.816 -0.532,112 -429.332,0 0,-417.946"
   style="fill:none;stroke:#2a7fff;stroke-opacity:1;stroke-width:1.6;stroke-linecap:butt;stroke-linejoin:miter;stroke-miterlimit:4;stroke-dasharray:none"
   id="path278" /><g
   id="g280"
   transform="matrix(-0.00474268,1,-1,-0.00474268,0,734.81555)"><path
     d="m -286.596,-547.293 6.4,-6.398 -22.4,6.4 22.402,6.397 -6.402,-6.399 z"
     style="fill:#000000;fill-opacity:1;fill-rule:evenodd;stroke:#000000;stroke-opacity:1;stroke-width:1.599982;stroke-linecap:butt;stroke-linejoin:miter;stroke-miterlimit:4;stroke-dasharray:none"
     id="path282" /></g><text
   transform="matrix(1,0,0,-1,861.2889,490.18097)"
   id="text284"><tspan
     style="fill:#000000;fill-opacity:1;fill-rule:nonzero;stroke:none;font-family:Arial;font-variant:normal;font-weight:normal;font-size:25.6;writing-mode:lr;-inkscape-font-specification:ArialMT"
     x="0"
     y="0"
     id="tspan286">K</tspan></text>

<text
   transform="matrix(1,0,0,-1,878.3889,485.06097)"
   id="text288"><tspan
     style="fill:#000000;fill-opacity:1;fill-rule:nonzero;stroke:none;font-family:Arial;font-variant:normal;font-weight:normal;font-size:13.31211;writing-mode:lr;-inkscape-font-specification:ArialMT"
     x="0 7.40153316"
     y="0"
     sodipodi:role="line"
     id="tspan290">32</tspan></text>

<path
   d="m 872.656,515.151 c 0,-1.101 -0.894,-2 -2,-2 -1.101,0 -2,0.899 -2,2 0,1.106 0.899,2 2,2 1.106,0 2,-0.894 2,-2 z"
   style="fill:#000000;fill-opacity:1;fill-rule:nonzero;stroke:none"
   id="path292" /><text
   transform="matrix(1,0,0,-1,859.8889,394.18097)"
   id="text294"><tspan
     style="fill:#000000;fill-opacity:1;fill-rule:nonzero;stroke:none;font-family:Arial;font-variant:normal;font-weight:normal;font-size:25.6;writing-mode:lr;-inkscape-font-specification:ArialMT"
     x="0"
     y="0"
     id="tspan296">R</tspan></text>

<text
   transform="matrix(1,0,0,-1,878.3889,389.06097)"
   id="text298"><tspan
     style="fill:#000000;fill-opacity:1;fill-rule:nonzero;stroke:none;font-family:Arial;font-variant:normal;font-weight:normal;font-size:13.31211;writing-mode:lr;-inkscape-font-specification:ArialMT"
     x="0 7.40153316"
     y="0"
     sodipodi:role="line"
     id="tspan300">32</tspan></text>

<path
   d="m 872.656,419.151 c 0,-1.101 -0.894,-2 -2,-2 -1.101,0 -2,0.899 -2,2 0,1.106 0.899,2 2,2 1.106,0 2,-0.894 2,-2 z"
   style="fill:#000000;fill-opacity:1;fill-rule:nonzero;stroke:none"
   id="path302" /><text
   transform="matrix(1,0,0,-1,507.68878,489.46551)"
   id="text304"><tspan
     style="fill:#000000;fill-opacity:1;fill-rule:nonzero;stroke:none;font-family:Arial;font-variant:normal;font-weight:normal;font-size:25.6;writing-mode:lr;-inkscape-font-specification:ArialMT"
     x="0"
     y="0"
     id="tspan306">S</tspan></text>

<text
   transform="matrix(1,0,0,-1,524.78878,484.34551)"
   id="text308"><tspan
     style="fill:#000000;fill-opacity:1;fill-rule:nonzero;stroke:none;font-family:Arial;font-variant:normal;font-weight:normal;font-size:13.31211;writing-mode:lr;-inkscape-font-specification:ArialMT"
     x="0 7.40153316"
     y="0"
     sodipodi:role="line"
     id="tspan310">13</tspan></text>

<path
   d="m 519.059,513.554 c 0,-1.106 -0.895,-2 -2,-2 -1.106,0 -2,0.894 -2,2 0,1.105 0.894,2 2,2 1.105,0 2,-0.895 2,-2 z"
   style="fill:#000000;fill-opacity:1;fill-rule:nonzero;stroke:none"
   id="path312" /><text
   transform="matrix(1,0,0,-1,401.11934,424.87853)"
   id="text314"><tspan
     style="fill:#000000;fill-opacity:1;fill-rule:nonzero;stroke:none;font-family:Arial;font-variant:normal;font-weight:normal;font-size:25.6;writing-mode:lr;-inkscape-font-specification:ArialMT"
     x="0"
     y="0"
     id="tspan316">R</tspan></text>

<text
   transform="matrix(1,0,0,-1,419.61934,419.75853)"
   id="text318"><tspan
     style="fill:#000000;fill-opacity:1;fill-rule:nonzero;stroke:none;font-family:Arial;font-variant:normal;font-weight:normal;font-size:13.31211;writing-mode:lr;-inkscape-font-specification:ArialMT"
     x="0 7.40153316"
     y="0"
     sodipodi:role="line"
     id="tspan320">33</tspan></text>

<path
   d="m 413.891,448.968 c 0,-1.106 -0.899,-2 -2,-2 -1.106,0 -2,0.894 -2,2 0,1.101 0.894,2 2,2 1.101,0 2,-0.899 2,-2 z"
   style="fill:#000000;fill-opacity:1;fill-rule:nonzero;stroke:none"
   id="path322" /><text
   transform="matrix(1,0,0,-1,77.719415,220.07853)"
   id="text324"><tspan
     style="fill:#000000;fill-opacity:1;fill-rule:nonzero;stroke:none;font-family:Arial;font-variant:normal;font-weight:normal;font-size:25.6;writing-mode:lr;-inkscape-font-specification:ArialMT"
     x="0"
     y="0"
     id="tspan326">S</tspan></text>

<text
   transform="matrix(1,0,0,-1,94.819416,214.95853)"
   id="text328"><tspan
     style="fill:#000000;fill-opacity:1;fill-rule:nonzero;stroke:none;font-family:Arial;font-variant:normal;font-weight:normal;font-size:13.31211;writing-mode:lr;-inkscape-font-specification:ArialMT"
     x="0 7.40153316"
     y="0"
     sodipodi:role="line"
     id="tspan330">13</tspan></text>

<path
   d="m 89.09,244.167 c 0,-1.105 -0.899,-2 -2,-2 -1.106,0 -2,0.895 -2,2 0,1.106 0.894,2 2,2 1.101,0 2,-0.894 2,-2 z"
   style="fill:#000000;fill-opacity:1;fill-rule:nonzero;stroke:none"
   id="path332" /></g></g></svg>