<?xml version="1.0" encoding="UTF-8" standalone="no"?>
<!-- Created with Inkscape (http://www.inkscape.org/) -->

<svg
   xmlns:dc="http://purl.org/dc/elements/1.1/"
   xmlns:cc="http://creativecommons.org/ns#"
   xmlns:rdf="http://www.w3.org/1999/02/22-rdf-syntax-ns#"
   xmlns:svg="http://www.w3.org/2000/svg"
   xmlns="http://www.w3.org/2000/svg"
   xmlns:sodipodi="http://sodipodi.sourceforge.net/DTD/sodipodi-0.dtd"
   xmlns:inkscape="http://www.inkscape.org/namespaces/inkscape"
   version="1.1"
   width="1450.7937"
   height="918.51947"
   id="svg2"
   xml:space="preserve"
   inkscape:version="0.48.1 r9760"
   sodipodi:docname="Heun_I-O_Process_Equivalence_0_v2.svg"><sodipodi:namedview
     pagecolor="#ffffff"
     bordercolor="#666666"
     borderopacity="1"
     objecttolerance="10"
     gridtolerance="10"
     guidetolerance="10"
     inkscape:pageopacity="0"
     inkscape:pageshadow="2"
     inkscape:window-width="1280"
     inkscape:window-height="756"
     id="namedview97"
     showgrid="false"
     inkscape:zoom="0.58354778"
     inkscape:cx="725.39685"
     inkscape:cy="459.25974"
     inkscape:window-x="0"
     inkscape:window-y="0"
     inkscape:window-maximized="0"
     inkscape:current-layer="g12"
     fit-margin-top="0"
     fit-margin-left="0"
     fit-margin-right="0"
     fit-margin-bottom="0" /><metadata
     id="metadata8"><rdf:RDF><cc:Work
         rdf:about=""><dc:format>image/svg+xml</dc:format><dc:type
           rdf:resource="http://purl.org/dc/dcmitype/StillImage" /><dc:title></dc:title></cc:Work></rdf:RDF></metadata><defs
     id="defs6"><marker
       inkscape:stockid="EmptyDiamondL"
       orient="auto"
       refY="0.0"
       refX="0.0"
       id="EmptyDiamondL"
       style="overflow:visible"><path
         id="path4169"
         d="M 0,-7.0710768 L -7.0710894,0 L 0,7.0710589 L 7.0710462,0 L 0,-7.0710768 z "
         style="fill-rule:evenodd;fill:#FFFFFF;stroke:#000000;stroke-width:1.0pt;marker-start:none"
         transform="scale(0.8)" /></marker><marker
       inkscape:stockid="Arrow1Lstart"
       orient="auto"
       refY="0"
       refX="0"
       id="Arrow1Lstart"
       style="overflow:visible"><path
         id="path4143"
         d="M 0,0 5,-5 -12.5,0 5,5 0,0 z"
         style="fill-rule:evenodd;stroke:#000000;stroke-width:1pt;marker-start:none"
         transform="matrix(0.8,0,0,0.8,10,0)"
         inkscape:connector-curvature="0" /></marker><marker
       inkscape:stockid="Arrow1Lend"
       orient="auto"
       refY="0"
       refX="0"
       id="Arrow1Lend"
       style="overflow:visible"><path
         id="path4132"
         d="M 0,0 5,-5 -12.5,0 5,5 0,0 z"
         style="fill-rule:evenodd;stroke:#000000;stroke-width:1pt;marker-start:none"
         transform="matrix(-0.8,0,0,-0.8,-10,0)"
         inkscape:connector-curvature="0" /></marker><marker
       style="overflow:visible"
       inkscape:stockid="InfiniteLineStart"
       id="InfiniteLineStart"
       refX="0"
       refY="0"
       orient="auto"><g
         id="g4065"
         transform="translate(-13,0)"><circle
           d="M 3.8,0 C 3.8,0.44182781 3.4418278,0.80000001 3,0.80000001 2.5581722,0.80000001 2.2,0.44182781 2.2,0 c 0,-0.44182781 0.3581722,-0.80000001 0.8,-0.80000001 0.4418278,0 0.8,0.3581722 0.8,0.80000001 z"
           id="circle4067"
           r="0.80000001"
           cy="0"
           cx="3"
           sodipodi:cx="3"
           sodipodi:cy="0"
           sodipodi:rx="0.80000001"
           sodipodi:ry="0.80000001" /><circle
           d="M 7.3,0 C 7.3,0.44182781 6.9418278,0.80000001 6.5,0.80000001 6.0581722,0.80000001 5.7,0.44182781 5.7,0 c 0,-0.44182781 0.3581722,-0.80000001 0.8,-0.80000001 0.4418278,0 0.8,0.3581722 0.8,0.80000001 z"
           id="circle4069"
           r="0.80000001"
           cy="0"
           cx="6.5"
           sodipodi:cx="6.5"
           sodipodi:cy="0"
           sodipodi:rx="0.80000001"
           sodipodi:ry="0.80000001" /><circle
           d="M 10.8,0 C 10.8,0.44182781 10.441828,0.80000001 10,0.80000001 9.5581722,0.80000001 9.2,0.44182781 9.2,0 c 0,-0.44182781 0.3581722,-0.80000001 0.8,-0.80000001 0.441828,0 0.8,0.3581722 0.8,0.80000001 z"
           id="circle4071"
           r="0.80000001"
           cy="0"
           cx="10"
           sodipodi:cx="10"
           sodipodi:cy="0"
           sodipodi:rx="0.80000001"
           sodipodi:ry="0.80000001" /></g></marker></defs><g
     transform="matrix(1.25,0,0,-1.25,797.00212,416.4022)"
     id="g10"><g
       id="g12">












































































































<rect
   style="fill:none;stroke:#ff2a2a;stroke-width:1.60000002;stroke-miterlimit:4;stroke-opacity:1;stroke-dasharray:1.6, 1.6;stroke-dashoffset:0"
   id="rect3037"
   transform="scale(1,-1)"
   y="-51.837486"
   x="-162.96671"
   ry="6.6856003"
   rx="4.473772"
   height="157.67915"
   width="213.2" />








<text
   transform="scale(1,-1)"
   sodipodi:linespacing="125%"
   id="text3048"
   y="13.6763"
   x="-54.894341"
   style="font-size:25.60000038px;font-style:normal;font-variant:normal;font-weight:normal;font-stretch:normal;text-align:center;line-height:125%;letter-spacing:0px;word-spacing:0px;text-anchor:middle;fill:#000000;fill-opacity:1;stroke:none;font-family:Arial;-inkscape-font-specification:Arial"
   xml:space="preserve"><tspan
     y="13.6763"
     x="-54.894341"
     sodipodi:role="line"
     id="tspan3083">Single</tspan><tspan
     y="45.6763"
     x="-54.894341"
     sodipodi:role="line"
     id="tspan3110">Sector</tspan><tspan
     y="77.6763"
     x="-54.894341"
     sodipodi:role="line"
     id="tspan3111">(1)</tspan></text>


























<text
   xml:space="preserve"
   style="font-size:25.60000038px;font-style:normal;font-variant:normal;font-weight:normal;font-stretch:normal;text-align:center;line-height:125%;letter-spacing:0px;word-spacing:0px;text-anchor:middle;fill:#000000;fill-opacity:1;stroke:none;font-family:Arial;-inkscape-font-specification:Arial"
   x="415.50565"
   y="-69.523712"
   id="text3119"
   sodipodi:linespacing="125%"
   transform="scale(1,-1)"><tspan
     id="tspan3123"
     sodipodi:role="line"
     x="415.50565"
     y="-69.523712">Society</tspan><tspan
     id="tspan3125"
     sodipodi:role="line"
     x="415.50565"
     y="-37.523712">(3)</tspan></text>








<rect
   style="fill:none;stroke:#000000;stroke-width:1.60000002;stroke-linecap:butt;stroke-linejoin:miter;stroke-miterlimit:4;stroke-opacity:1;stroke-dasharray:none;stroke-dashoffset:0"
   id="rect4109"
   width="137.75447"
   height="1086.2437"
   x="241.73953"
   y="-466.66373"
   transform="matrix(0,-1,-1,0,0,0)"
   rx="24.934467"
   ry="27.614489" /><text
   transform="scale(1,-1)"
   sodipodi:linespacing="125%"
   id="text4115"
   y="313.41605"
   x="-76.595657"
   style="font-size:25.60000038px;font-style:normal;font-variant:normal;font-weight:normal;font-stretch:normal;text-align:center;line-height:125%;letter-spacing:0px;word-spacing:0px;text-anchor:middle;fill:#000000;fill-opacity:1;stroke:none;font-family:Arial;-inkscape-font-specification:Arial"
   xml:space="preserve"><tspan
     y="313.41605"
     x="-76.595657"
     sodipodi:role="line"
     id="tspan4117">Earth</tspan><tspan
     y="345.41605"
     x="-76.595657"
     sodipodi:role="line"
     id="tspan4119">(2)</tspan></text>








<path
   d="m 330.06314,-61.81217 0,260.3 85.42,48 85.417,-48 0,-260.047 -85.417,-48.125 z"
   id="path4124"
   style="fill:none;stroke:#000000;stroke-width:2.4000001;stroke-linecap:butt;stroke-linejoin:miter;stroke-miterlimit:4;stroke-opacity:1;stroke-dasharray:none"
   inkscape:connector-curvature="0"
   sodipodi:nodetypes="ccccccc" />




































































<path
   sodipodi:nodetypes="ccc"
   inkscape:connector-curvature="0"
   id="path3349"
   d="m -151.27482,-54.87824 -338.66236,0 0,-251.54423"
   style="fill:none;stroke:#000000;stroke-width:1.60000002;stroke-linecap:butt;stroke-linejoin:miter;stroke-opacity:1;marker-start:url(#Arrow1Lstart);marker-end:none" />








<g
   id="g3024"><text
     xml:space="preserve"
     style="font-size:25.60000038px;font-style:normal;font-variant:normal;font-weight:normal;font-stretch:normal;text-align:end;line-height:125%;letter-spacing:0px;word-spacing:0px;text-anchor:end;fill:#000000;fill-opacity:1;stroke:none;font-family:Arial;-inkscape-font-specification:Arial"
     x="-452.76221"
     y="197.61526"
     id="text4782"
     sodipodi:linespacing="125%"
     transform="scale(1,-1)"><tspan
       id="tspan3042"
       sodipodi:role="line">E<tspan
   id="tspan3044"
   style="font-size:52%;baseline-shift:sub">21</tspan></tspan></text>
<path
     sodipodi:type="arc"
     style="fill:#000000;fill-opacity:1;stroke:none"
     id="path4796"
     sodipodi:cx="-182.15479"
     sodipodi:cy="250.41866"
     sodipodi:rx="27.011545"
     sodipodi:ry="19.392904"
     d="m -155.14324,250.41866 c 0,10.7104 -12.09348,19.3929 -27.01155,19.3929 -14.91806,0 -27.01154,-8.6825 -27.01154,-19.3929 0,-10.71041 12.09348,-19.39291 27.01154,-19.39291 14.91807,0 27.01155,8.6825 27.01155,19.39291 z"
     transform="matrix(0.07404241,0,0,-0.1031305,-461.82581,-147.70169)" /></g>








<g
   id="g3030"
   transform="translate(0,-60.8)"><text
     transform="scale(1,-1)"
     sodipodi:linespacing="125%"
     id="text4806"
     y="26.415258"
     x="-187.16217"
     style="font-size:25.60000038px;font-style:normal;font-variant:normal;font-weight:normal;font-stretch:normal;text-align:end;line-height:125%;letter-spacing:0px;word-spacing:0px;text-anchor:end;fill:#000000;fill-opacity:1;stroke:none;font-family:Arial;-inkscape-font-specification:Arial"
     xml:space="preserve"><tspan
       y="26.415258"
       x="-187.16217"
       id="tspan4808"
       sodipodi:role="line">E<tspan
   id="tspan3046"
   style="font-size:52.00042725%;baseline-shift:sub">2</tspan><tspan
   id="tspan4810"
   style="font-size:52.00042725%;baseline-shift:sub">1</tspan></tspan></text>
<path
     transform="matrix(0.07404241,0,0,-0.1031305,-196.22581,23.49831)"
     d="m -155.14324,250.41866 c 0,10.7104 -12.09348,19.3929 -27.01155,19.3929 -14.91806,0 -27.01154,-8.6825 -27.01154,-19.3929 0,-10.71041 12.09348,-19.39291 27.01154,-19.39291 14.91807,0 27.01155,8.6825 27.01155,19.39291 z"
     sodipodi:ry="19.392904"
     sodipodi:rx="27.011545"
     sodipodi:cy="250.41866"
     sodipodi:cx="-182.15479"
     id="path4812"
     style="fill:#000000;fill-opacity:1;stroke:none"
     sodipodi:type="arc" /></g>


<path
   d="m -74.31506,-88.93106 0,-149.79388"
   id="path4841"
   style="fill:none;stroke:#000000;stroke-width:1.60000002;stroke-linecap:butt;stroke-linejoin:miter;stroke-miterlimit:4;stroke-opacity:1;stroke-dasharray:6.4, 6.4;stroke-dashoffset:0;marker-end:url(#Arrow1Lend)"
   inkscape:connector-curvature="0"
   sodipodi:nodetypes="cc" />





<g
   id="g3037"
   transform="translate(-64,0)"><text
     xml:space="preserve"
     style="font-size:25.60000038px;font-style:normal;font-variant:normal;font-weight:normal;font-stretch:normal;text-align:end;line-height:125%;letter-spacing:0px;word-spacing:0px;text-anchor:end;fill:#000000;fill-opacity:1;stroke:none;font-family:Arial;-inkscape-font-specification:Arial"
     x="-20.762108"
     y="178.41531"
     id="text4843"
     sodipodi:linespacing="125%"
     transform="scale(1,-1)"><tspan
       sodipodi:role="line"
       id="tspan4845"
       x="-20.762108"
       y="178.41531">Q<tspan
   style="font-size:52.00042725%;baseline-shift:sub"
   id="tspan4847">12</tspan></tspan></text>
<path
     sodipodi:type="arc"
     style="fill:#000000;fill-opacity:1;stroke:none"
     id="path4849"
     sodipodi:cx="-182.15479"
     sodipodi:cy="250.41866"
     sodipodi:rx="27.011545"
     sodipodi:ry="19.392904"
     d="m -155.14324,250.41866 c 0,10.7104 -12.09348,19.3929 -27.01155,19.3929 -14.91806,0 -27.01154,-8.6825 -27.01154,-19.3929 0,-10.71041 12.09348,-19.39291 27.01154,-19.39291 14.91807,0 27.01155,8.6825 27.01155,19.39291 z"
     transform="matrix(0.07404241,0,0,-0.1031305,-31.42581,-126.90169)" /></g>


<path
   sodipodi:nodetypes="cczccc"
   inkscape:connector-curvature="0"
   style="fill:none;stroke:#000000;stroke-width:2.4000001;stroke-linecap:butt;stroke-linejoin:miter;stroke-miterlimit:4;stroke-opacity:1;stroke-dasharray:none"
   id="path5014"
   d="m -149.923,14.392 137.1,0 c 0,0 48.00026,-0.20927 48,-51.82 -2.6e-4,-51.61073 -48,-51.817 -48,-51.817 l -136.847,0 z" /><rect
   width="1122.0914"
   height="180.73129"
   rx="23.545877"
   ry="7.6630116"
   x="-636.8017"
   y="220.16251"
   transform="scale(1,-1)"
   id="rect4745"
   style="fill:none;stroke:#ff2a2a;stroke-width:1.60000002;stroke-miterlimit:4;stroke-opacity:1;stroke-dasharray:3.92979631, 3.92979631;stroke-dashoffset:0" /><text
   xml:space="preserve"
   style="font-size:40px;font-style:normal;font-weight:normal;line-height:125%;letter-spacing:0px;word-spacing:0px;fill:#000000;fill-opacity:1;stroke:none;font-family:Sans"
   x="1491.8081"
   y="664.91211"
   id="text3105"
   sodipodi:linespacing="125%"
   transform="matrix(0.8,0,0,-0.8,-637.6017,333.12176)"><tspan
     sodipodi:role="line"
     id="tspan3107"
     x="1491.8081"
     y="664.91211" /></text>


<path
   style="fill:none;stroke:#000000;stroke-width:1.6;stroke-linecap:butt;stroke-linejoin:miter;stroke-opacity:1;marker-start:url(#Arrow1Lstart);marker-end:none;stroke-miterlimit:4;stroke-dasharray:1.6,1.6;stroke-dashoffset:0"
   d="m -151.27482,-22.87824 -372.26236,0 0,-281.94423"
   id="path3043"
   inkscape:connector-curvature="0"
   sodipodi:nodetypes="ccc" /><g
   id="g3045"
   transform="translate(-81.6,0)"><text
     transform="scale(1,-1)"
     sodipodi:linespacing="125%"
     id="text3047"
     y="197.61526"
     x="-452.76221"
     style="font-size:25.60000038px;font-style:normal;font-variant:normal;font-weight:normal;font-stretch:normal;text-align:end;line-height:125%;letter-spacing:0px;word-spacing:0px;text-anchor:end;fill:#000000;fill-opacity:1;stroke:none;font-family:Arial;-inkscape-font-specification:Arial"
     xml:space="preserve"><tspan
       sodipodi:role="line"
       id="tspan3049"
       x="-452.76221"
       y="197.61526">b<tspan
   style="font-size:52.00042725%;baseline-shift:sub"
   id="tspan3051">21</tspan></tspan></text>
<path
     transform="matrix(0.07404241,0,0,-0.1031305,-461.82581,-147.70169)"
     d="m -155.14324,250.41866 c 0,10.7104 -12.09348,19.3929 -27.01155,19.3929 -14.91806,0 -27.01154,-8.6825 -27.01154,-19.3929 0,-10.71041 12.09348,-19.39291 27.01154,-19.39291 14.91807,0 27.01155,8.6825 27.01155,19.39291 z"
     sodipodi:ry="19.392904"
     sodipodi:rx="27.011545"
     sodipodi:cy="250.41866"
     sodipodi:cx="-182.15479"
     id="path3053"
     style="fill:#000000;fill-opacity:1;stroke:none"
     sodipodi:type="arc" /></g><g
   transform="translate(0,19.2)"
   id="g3055"><text
     xml:space="preserve"
     style="font-size:25.60000038px;font-style:normal;font-variant:normal;font-weight:normal;font-stretch:normal;text-align:end;line-height:125%;letter-spacing:0px;word-spacing:0px;text-anchor:end;fill:#000000;fill-opacity:1;stroke:none;font-family:Arial;-inkscape-font-specification:Arial"
     x="-187.16217"
     y="26.415258"
     id="text3057"
     sodipodi:linespacing="125%"
     transform="scale(1,-1)"><tspan
       sodipodi:role="line"
       id="tspan3059"
       x="-187.16217"
       y="26.415258">b<tspan
   style="font-size:52.00042725%;baseline-shift:sub"
   id="tspan3061">21</tspan></tspan></text>
<path
     sodipodi:type="arc"
     style="fill:#000000;fill-opacity:1;stroke:none"
     id="path3065"
     sodipodi:cx="-182.15479"
     sodipodi:cy="250.41866"
     sodipodi:rx="27.011545"
     sodipodi:ry="19.392904"
     d="m -155.14324,250.41866 c 0,10.7104 -12.09348,19.3929 -27.01155,19.3929 -14.91806,0 -27.01154,-8.6825 -27.01154,-19.3929 0,-10.71041 12.09348,-19.39291 27.01154,-19.39291 14.91807,0 27.01155,8.6825 27.01155,19.39291 z"
     transform="matrix(0.07404241,0,0,-0.1031305,-196.22581,23.49831)" /></g><path
   style="fill:none;stroke:#000000;stroke-width:1.60000002;stroke-linecap:butt;stroke-linejoin:miter;stroke-opacity:1;marker-start:url(#Arrow1Lstart);marker-end:none"
   d="m 328.72518,-54.87824 -297.06236,0"
   id="path3862"
   inkscape:connector-curvature="0"
   sodipodi:nodetypes="cc" /><path
   sodipodi:nodetypes="cccc"
   inkscape:connector-curvature="0"
   id="path3868"
   d="m -75.17811,14.81846 0,100.26236 251.82494,0.23937 -0.28071,-169.83937"
   style="fill:none;stroke:#000000;stroke-width:1.60000002;stroke-linecap:butt;stroke-linejoin:miter;stroke-miterlimit:4;stroke-opacity:1;stroke-dasharray:none;stroke-dashoffset:0;marker-start:url(#Arrow1Lstart);marker-end:url(#EmptyDiamondL)" /><rect
   style="fill:#ffffff;fill-opacity:1;stroke:none"
   id="rect4703"
   width="11.433827"
   height="9.4160938"
   x="170.78462"
   y="17.651726"
   transform="scale(1,-1)" /><path
   sodipodi:nodetypes="cc"
   inkscape:connector-curvature="0"
   id="path3864"
   d="m 328.72518,-22.87824 -297.06236,0"
   style="fill:none;stroke:#000000;stroke-width:1.60000002;stroke-linecap:butt;stroke-linejoin:miter;stroke-miterlimit:4;stroke-opacity:1;stroke-dasharray:1.6, 1.6;stroke-dashoffset:0;marker-start:url(#Arrow1Lstart);marker-end:none" /><path
   style="fill:none;stroke:#000000;stroke-width:1.60000002;stroke-linecap:butt;stroke-linejoin:miter;stroke-miterlimit:4;stroke-opacity:1;stroke-dasharray:1.6, 1.6;stroke-dashoffset:0;marker-start:url(#Arrow1Lstart);marker-end:url(#EmptyDiamondL)"
   d="m -43.17811,16.41846 0,66.66236 180.95529,0 -0.008,-105.402923"
   id="path3866"
   inkscape:connector-curvature="0"
   sodipodi:nodetypes="cccc" /><path
   sodipodi:nodetypes="cc"
   inkscape:connector-curvature="0"
   style="fill:none;stroke:#000000;stroke-width:1.60000002;stroke-linecap:butt;stroke-linejoin:miter;stroke-miterlimit:4;stroke-opacity:1;stroke-dasharray:6.4, 6.4;stroke-dashoffset:0;marker-end:url(#Arrow1Lend)"
   id="path4705"
   d="m 399.28494,-100.13106 0,-138.59388" /><g
   id="g4707"
   transform="translate(414.4,0)"><text
     transform="scale(1,-1)"
     sodipodi:linespacing="125%"
     id="text4709"
     y="178.41531"
     x="-20.762108"
     style="font-size:25.60000038px;font-style:normal;font-variant:normal;font-weight:normal;font-stretch:normal;text-align:end;line-height:125%;letter-spacing:0px;word-spacing:0px;text-anchor:end;fill:#000000;fill-opacity:1;stroke:none;font-family:Arial;-inkscape-font-specification:Arial"
     xml:space="preserve"><tspan
       y="178.41531"
       x="-20.762108"
       id="tspan4711"
       sodipodi:role="line">Q<tspan
   id="tspan4713"
   style="font-size:52.00042725%;baseline-shift:sub">31</tspan></tspan></text>
<path
     transform="matrix(0.07404241,0,0,-0.1031305,-31.42581,-126.90169)"
     d="m -155.14324,250.41866 c 0,10.7104 -12.09348,19.3929 -27.01155,19.3929 -14.91806,0 -27.01154,-8.6825 -27.01154,-19.3929 0,-10.71041 12.09348,-19.39291 27.01154,-19.39291 14.91807,0 27.01155,8.6825 27.01155,19.39291 z"
     sodipodi:ry="19.392904"
     sodipodi:rx="27.011545"
     sodipodi:cy="250.41866"
     sodipodi:cx="-182.15479"
     id="path4715"
     style="fill:#000000;fill-opacity:1;stroke:none"
     sodipodi:type="arc" /></g><g
   transform="translate(272,-60.8)"
   id="g4717"><text
     xml:space="preserve"
     style="font-size:25.60000038px;font-style:normal;font-variant:normal;font-weight:normal;font-stretch:normal;text-align:end;line-height:125%;letter-spacing:0px;word-spacing:0px;text-anchor:end;fill:#000000;fill-opacity:1;stroke:none;font-family:Arial;-inkscape-font-specification:Arial"
     x="-187.16217"
     y="26.415258"
     id="text4719"
     sodipodi:linespacing="125%"
     transform="scale(1,-1)"><tspan
       sodipodi:role="line"
       id="tspan4721"
       x="-187.16217"
       y="26.415258">E<tspan
   style="font-size:52.00042725%;baseline-shift:sub"
   id="tspan4725">1</tspan></tspan></text>
<path
     sodipodi:type="arc"
     style="fill:#000000;fill-opacity:1;stroke:none"
     id="path4727"
     sodipodi:cx="-182.15479"
     sodipodi:cy="250.41866"
     sodipodi:rx="27.011545"
     sodipodi:ry="19.392904"
     d="m -155.14324,250.41866 c 0,10.7104 -12.09348,19.3929 -27.01155,19.3929 -14.91806,0 -27.01154,-8.6825 -27.01154,-19.3929 0,-10.71041 12.09348,-19.39291 27.01154,-19.39291 14.91807,0 27.01155,8.6825 27.01155,19.39291 z"
     transform="matrix(0.07404241,0,0,-0.1031305,-189.82581,23.49831)" /></g><g
   id="g4729"
   transform="translate(272,19.2)"><text
     transform="scale(1,-1)"
     sodipodi:linespacing="125%"
     id="text4731"
     y="26.415258"
     x="-187.16217"
     style="font-size:25.60000038px;font-style:normal;font-variant:normal;font-weight:normal;font-stretch:normal;text-align:end;line-height:125%;letter-spacing:0px;word-spacing:0px;text-anchor:end;fill:#000000;fill-opacity:1;stroke:none;font-family:Arial;-inkscape-font-specification:Arial"
     xml:space="preserve"><tspan
       y="26.415258"
       x="-187.16217"
       id="tspan4733"
       sodipodi:role="line">b<tspan
   id="tspan4735"
   style="font-size:52.00042725%;baseline-shift:sub">1</tspan></tspan></text>
<path
     transform="matrix(0.07404241,0,0,-0.1031305,-188.22581,23.49831)"
     d="m -155.14324,250.41866 c 0,10.7104 -12.09348,19.3929 -27.01155,19.3929 -14.91806,0 -27.01154,-8.6825 -27.01154,-19.3929 0,-10.71041 12.09348,-19.39291 27.01154,-19.39291 14.91807,0 27.01155,8.6825 27.01155,19.39291 z"
     sodipodi:ry="19.392904"
     sodipodi:rx="27.011545"
     sodipodi:cy="250.41866"
     sodipodi:cx="-182.15479"
     id="path4737"
     style="fill:#000000;fill-opacity:1;stroke:none"
     sodipodi:type="arc" /></g><g
   transform="translate(448,-60.8)"
   id="g4758"><text
     xml:space="preserve"
     style="font-size:25.60000038px;font-style:normal;font-variant:normal;font-weight:normal;font-stretch:normal;text-align:end;line-height:125%;letter-spacing:0px;word-spacing:0px;text-anchor:end;fill:#000000;fill-opacity:1;stroke:none;font-family:Arial;-inkscape-font-specification:Arial"
     x="-187.16217"
     y="26.415258"
     id="text4760"
     sodipodi:linespacing="125%"
     transform="scale(1,-1)"><tspan
       sodipodi:role="line"
       id="tspan4762"
       x="-187.16217"
       y="26.415258">E<tspan
   style="font-size:52.00042725%;baseline-shift:sub"
   id="tspan4766">13</tspan></tspan></text>
<path
     sodipodi:type="arc"
     style="fill:#000000;fill-opacity:1;stroke:none"
     id="path4768"
     sodipodi:cx="-182.15479"
     sodipodi:cy="250.41866"
     sodipodi:rx="27.011545"
     sodipodi:ry="19.392904"
     d="m -155.14324,250.41866 c 0,10.7104 -12.09348,19.3929 -27.01155,19.3929 -14.91806,0 -27.01154,-8.6825 -27.01154,-19.3929 0,-10.71041 12.09348,-19.39291 27.01154,-19.39291 14.91807,0 27.01155,8.6825 27.01155,19.39291 z"
     transform="matrix(0.07404241,0,0,-0.1031305,-196.22581,23.49831)" /></g><g
   id="g4770"
   transform="translate(448,19.2)"><text
     transform="scale(1,-1)"
     sodipodi:linespacing="125%"
     id="text4772"
     y="26.415258"
     x="-187.16217"
     style="font-size:25.60000038px;font-style:normal;font-variant:normal;font-weight:normal;font-stretch:normal;text-align:end;line-height:125%;letter-spacing:0px;word-spacing:0px;text-anchor:end;fill:#000000;fill-opacity:1;stroke:none;font-family:Arial;-inkscape-font-specification:Arial"
     xml:space="preserve"><tspan
       y="26.415258"
       x="-187.16217"
       id="tspan4774"
       sodipodi:role="line">b<tspan
   id="tspan4776"
   style="font-size:52.00042725%;baseline-shift:sub">13</tspan></tspan></text>
<path
     transform="matrix(0.07404241,0,0,-0.1031305,-196.22581,23.49831)"
     d="m -155.14324,250.41866 c 0,10.7104 -12.09348,19.3929 -27.01155,19.3929 -14.91806,0 -27.01154,-8.6825 -27.01154,-19.3929 0,-10.71041 12.09348,-19.39291 27.01154,-19.39291 14.91807,0 27.01155,8.6825 27.01155,19.39291 z"
     sodipodi:ry="19.392904"
     sodipodi:rx="27.011545"
     sodipodi:cy="250.41866"
     sodipodi:cx="-182.15479"
     id="path4778"
     style="fill:#000000;fill-opacity:1;stroke:none"
     sodipodi:type="arc" /></g><g
   id="g4801"
   transform="translate(667.2,249.6)"><text
     transform="scale(1,-1)"
     sodipodi:linespacing="125%"
     id="text4803"
     y="197.61526"
     x="-452.76221"
     style="font-size:25.60000038px;font-style:normal;font-variant:normal;font-weight:normal;font-stretch:normal;text-align:end;line-height:125%;letter-spacing:0px;word-spacing:0px;text-anchor:end;fill:#000000;fill-opacity:1;stroke:none;font-family:Arial;-inkscape-font-specification:Arial"
     xml:space="preserve"><tspan
       sodipodi:role="line"
       id="tspan4805"
       x="-452.76221"
       y="197.61526">E<tspan
   style="font-size:52.00042725%;baseline-shift:sub"
   id="tspan4807">22</tspan></tspan></text>
<path
     transform="matrix(0.07404241,0,0,-0.1031305,-461.82581,-147.70169)"
     d="m -155.14324,250.41866 c 0,10.7104 -12.09348,19.3929 -27.01155,19.3929 -14.91806,0 -27.01154,-8.6825 -27.01154,-19.3929 0,-10.71041 12.09348,-19.39291 27.01154,-19.39291 14.91807,0 27.01155,8.6825 27.01155,19.39291 z"
     sodipodi:ry="19.392904"
     sodipodi:rx="27.011545"
     sodipodi:cy="250.41866"
     sodipodi:cx="-182.15479"
     id="path4809"
     style="fill:#000000;fill-opacity:1;stroke:none"
     sodipodi:type="arc" /></g><g
   transform="translate(585.6,249.6)"
   id="g4811"><text
     xml:space="preserve"
     style="font-size:25.60000038px;font-style:normal;font-variant:normal;font-weight:normal;font-stretch:normal;text-align:end;line-height:125%;letter-spacing:0px;word-spacing:0px;text-anchor:end;fill:#000000;fill-opacity:1;stroke:none;font-family:Arial;-inkscape-font-specification:Arial"
     x="-452.76221"
     y="197.61526"
     id="text4813"
     sodipodi:linespacing="125%"
     transform="scale(1,-1)"><tspan
       y="197.61526"
       x="-452.76221"
       id="tspan4815"
       sodipodi:role="line">b<tspan
   id="tspan4817"
   style="font-size:52.00042725%;baseline-shift:sub">22</tspan></tspan></text>
<path
     sodipodi:type="arc"
     style="fill:#000000;fill-opacity:1;stroke:none"
     id="path4819"
     sodipodi:cx="-182.15479"
     sodipodi:cy="250.41866"
     sodipodi:rx="27.011545"
     sodipodi:ry="19.392904"
     d="m -155.14324,250.41866 c 0,10.7104 -12.09348,19.3929 -27.01155,19.3929 -14.91806,0 -27.01154,-8.6825 -27.01154,-19.3929 0,-10.71041 12.09348,-19.39291 27.01154,-19.39291 14.91807,0 27.01155,8.6825 27.01155,19.39291 z"
     transform="matrix(0.07404241,0,0,-0.1031305,-461.82581,-147.70169)" /></g><g
   id="g4827"
   transform="translate(185.6,-152)"><text
     transform="scale(1,-1)"
     sodipodi:linespacing="125%"
     id="text4829"
     y="26.415258"
     x="-187.16217"
     style="font-size:25.60000038px;font-style:normal;font-variant:normal;font-weight:normal;font-stretch:normal;text-align:end;line-height:125%;letter-spacing:0px;word-spacing:0px;text-anchor:end;fill:#000000;fill-opacity:1;stroke:none;font-family:Arial;-inkscape-font-specification:Arial"
     xml:space="preserve"><tspan
       y="26.415258"
       x="-187.16217"
       id="tspan4831"
       sodipodi:role="line">b<tspan
   id="tspan4833"
   style="font-size:52.00042725%;baseline-shift:sub">12</tspan></tspan></text>
<path
     transform="matrix(0.07404241,0,0,-0.1031305,-196.22581,23.49831)"
     d="m -155.14324,250.41866 c 0,10.7104 -12.09348,19.3929 -27.01155,19.3929 -14.91806,0 -27.01154,-8.6825 -27.01154,-19.3929 0,-10.71041 12.09348,-19.39291 27.01154,-19.39291 14.91807,0 27.01155,8.6825 27.01155,19.39291 z"
     sodipodi:ry="19.392904"
     sodipodi:rx="27.011545"
     sodipodi:cy="250.41866"
     sodipodi:cx="-182.15479"
     id="path4835"
     style="fill:#000000;fill-opacity:1;stroke:none"
     sodipodi:type="arc" /></g><path
   sodipodi:nodetypes="cc"
   inkscape:connector-curvature="0"
   style="fill:none;stroke:#000000;stroke-width:1.6;stroke-linecap:butt;stroke-linejoin:miter;stroke-miterlimit:4;stroke-opacity:1;stroke-dasharray:1.6,1.6;stroke-dashoffset:0;marker-end:url(#Arrow1Lend)"
   id="path4837"
   d="m -42.31506,-88.93106 0,-149.79388" /><path
   d="m 431.28494,-100.13106 0,-138.59388"
   id="path4839"
   style="fill:none;stroke:#000000;stroke-width:1.6;stroke-linecap:butt;stroke-linejoin:miter;stroke-miterlimit:4;stroke-opacity:1;stroke-dasharray:1.6,1.6;stroke-dashoffset:0;marker-end:url(#Arrow1Lend)"
   inkscape:connector-curvature="0"
   sodipodi:nodetypes="cc" /><g
   transform="translate(491.2,0)"
   id="g4841"><text
     xml:space="preserve"
     style="font-size:25.60000038px;font-style:normal;font-variant:normal;font-weight:normal;font-stretch:normal;text-align:end;line-height:125%;letter-spacing:0px;word-spacing:0px;text-anchor:end;fill:#000000;fill-opacity:1;stroke:none;font-family:Arial;-inkscape-font-specification:Arial"
     x="-20.762108"
     y="178.41531"
     id="text4844"
     sodipodi:linespacing="125%"
     transform="scale(1,-1)"><tspan
       sodipodi:role="line"
       id="tspan4846"
       x="-20.762108"
       y="178.41531">b<tspan
   style="font-size:52.00042725%;baseline-shift:sub"
   id="tspan4848">31</tspan></tspan></text>
<path
     sodipodi:type="arc"
     style="fill:#000000;fill-opacity:1;stroke:none"
     id="path4850"
     sodipodi:cx="-182.15479"
     sodipodi:cy="250.41866"
     sodipodi:rx="27.011545"
     sodipodi:ry="19.392904"
     d="m -155.14324,250.41866 c 0,10.7104 -12.09348,19.3929 -27.01155,19.3929 -14.91806,0 -27.01154,-8.6825 -27.01154,-19.3929 0,-10.71041 12.09348,-19.39291 27.01154,-19.39291 14.91807,0 27.01155,8.6825 27.01155,19.39291 z"
     transform="matrix(0.07404241,0,0,-0.1031305,-31.42581,-126.90169)" /></g></g></g></svg>