<?xml version="1.0" encoding="UTF-8" standalone="no"?>
<!-- Created with Inkscape (http://www.inkscape.org/) -->

<svg
   xmlns:dc="http://purl.org/dc/elements/1.1/"
   xmlns:cc="http://creativecommons.org/ns#"
   xmlns:rdf="http://www.w3.org/1999/02/22-rdf-syntax-ns#"
   xmlns:svg="http://www.w3.org/2000/svg"
   xmlns="http://www.w3.org/2000/svg"
   xmlns:sodipodi="http://sodipodi.sourceforge.net/DTD/sodipodi-0.dtd"
   xmlns:inkscape="http://www.inkscape.org/namespaces/inkscape"
   version="1.1"
   width="1450.7937"
   height="918.51947"
   id="svg2"
   xml:space="preserve"
   inkscape:version="0.48.1 r9760"
   sodipodi:docname="Heun_I-O_Direct_Energy.svg"><sodipodi:namedview
     pagecolor="#ffffff"
     bordercolor="#666666"
     borderopacity="1"
     objecttolerance="10"
     gridtolerance="10"
     guidetolerance="10"
     inkscape:pageopacity="0"
     inkscape:pageshadow="2"
     inkscape:window-width="1215"
     inkscape:window-height="756"
     id="namedview97"
     showgrid="false"
     inkscape:zoom="0.60329476"
     inkscape:cx="760.37246"
     inkscape:cy="273.72685"
     inkscape:window-x="0"
     inkscape:window-y="0"
     inkscape:window-maximized="0"
     inkscape:current-layer="g12"
     fit-margin-top="0"
     fit-margin-left="0"
     fit-margin-right="0"
     fit-margin-bottom="0" /><metadata
     id="metadata8"><rdf:RDF><cc:Work
         rdf:about=""><dc:format>image/svg+xml</dc:format><dc:type
           rdf:resource="http://purl.org/dc/dcmitype/StillImage" /><dc:title /></cc:Work></rdf:RDF></metadata><defs
     id="defs6"><marker
       inkscape:stockid="Arrow1Lstart"
       orient="auto"
       refY="0"
       refX="0"
       id="Arrow1Lstart"
       style="overflow:visible"><path
         id="path4143"
         d="M 0,0 5,-5 -12.5,0 5,5 0,0 z"
         style="fill-rule:evenodd;stroke:#000000;stroke-width:1pt;marker-start:none"
         transform="matrix(0.8,0,0,0.8,10,0)"
         inkscape:connector-curvature="0" /></marker><marker
       inkscape:stockid="Arrow1Lend"
       orient="auto"
       refY="0"
       refX="0"
       id="Arrow1Lend"
       style="overflow:visible"><path
         id="path4132"
         d="M 0,0 5,-5 -12.5,0 5,5 0,0 z"
         style="fill-rule:evenodd;stroke:#000000;stroke-width:1pt;marker-start:none"
         transform="matrix(-0.8,0,0,-0.8,-10,0)"
         inkscape:connector-curvature="0" /></marker><marker
       style="overflow:visible"
       inkscape:stockid="InfiniteLineStart"
       id="InfiniteLineStart"
       refX="0"
       refY="0"
       orient="auto"><g
         id="g4065"
         transform="translate(-13,0)"><circle
           d="M 3.8,0 C 3.8,0.44182781 3.4418278,0.80000001 3,0.80000001 2.5581722,0.80000001 2.2,0.44182781 2.2,0 c 0,-0.44182781 0.3581722,-0.80000001 0.8,-0.80000001 0.4418278,0 0.8,0.3581722 0.8,0.80000001 z"
           id="circle4067"
           r="0.80000001"
           cy="0"
           cx="3"
           sodipodi:cx="3"
           sodipodi:cy="0"
           sodipodi:rx="0.80000001"
           sodipodi:ry="0.80000001" /><circle
           d="M 7.3,0 C 7.3,0.44182781 6.9418278,0.80000001 6.5,0.80000001 6.0581722,0.80000001 5.7,0.44182781 5.7,0 c 0,-0.44182781 0.3581722,-0.80000001 0.8,-0.80000001 0.4418278,0 0.8,0.3581722 0.8,0.80000001 z"
           id="circle4069"
           r="0.80000001"
           cy="0"
           cx="6.5"
           sodipodi:cx="6.5"
           sodipodi:cy="0"
           sodipodi:rx="0.80000001"
           sodipodi:ry="0.80000001" /><circle
           d="M 10.8,0 C 10.8,0.44182781 10.441828,0.80000001 10,0.80000001 9.5581722,0.80000001 9.2,0.44182781 9.2,0 c 0,-0.44182781 0.3581722,-0.80000001 0.8,-0.80000001 0.441828,0 0.8,0.3581722 0.8,0.80000001 z"
           id="circle4071"
           r="0.80000001"
           cy="0"
           cx="10"
           sodipodi:cx="10"
           sodipodi:cy="0"
           sodipodi:rx="0.80000001"
           sodipodi:ry="0.80000001" /></g></marker></defs><g
     transform="matrix(1.25,0,0,-1.25,797.00212,416.4022)"
     id="g10"><g
       id="g12"><path
   sodipodi:nodetypes="cc"
   inkscape:connector-curvature="0"
   style="fill:none;stroke:#000000;stroke-width:1.60000002;stroke-linecap:butt;stroke-linejoin:miter;stroke-miterlimit:4;stroke-opacity:1;stroke-dasharray:6.4, 6.4;stroke-dashoffset:0;marker-end:url(#Arrow1Lend)"
   id="path4851"
   d="m -365.51506,119.06894 0,-357.79388" /><rect
   ry="0"
   rx="0"
   transform="matrix(0,1,1,0,0,0)"
   y="-379.39893"
   x="-43.245628"
   height="27.582428"
   width="12.673007"
   id="rect5012"
   style="fill:#ffffff;fill-opacity:1;stroke:none" /><path
   style="fill:none;stroke:#000000;stroke-width:1.60000002;stroke-linecap:butt;stroke-linejoin:miter;stroke-opacity:1;marker-end:url(#Arrow1Lend)"
   d="m 210.32518,-21.48838 0,353.81014 -615.46236,0 0,-107.54423"
   id="path4965"
   inkscape:connector-curvature="0"
   sodipodi:nodetypes="cccc" /><rect
   style="fill:#ffffff;fill-opacity:1;stroke:none"
   id="rect3140"
   width="12.673007"
   height="27.582428"
   x="163.15437"
   y="196.60106"
   transform="matrix(0,1,1,0,0,0)"
   rx="0"
   ry="0" /><path
   d="m -457.123,222.392 137.1,0 c 0,0 48.00026,-0.20927 48,-51.82 -2.6e-4,-51.61073 -48,-51.817 -48,-51.817 l -136.847,0 z"
   id="path14"
   style="fill:none;stroke:#000000;stroke-width:2.4000001;stroke-linecap:butt;stroke-linejoin:miter;stroke-miterlimit:4;stroke-opacity:1;stroke-dasharray:none"
   inkscape:connector-curvature="0"
   sodipodi:nodetypes="cczccc" /><path
   d="m -272.412,170.572 114.59389,0"
   id="path24"
   style="fill:none;stroke:#000000;stroke-width:1.48287129;stroke-linecap:butt;stroke-linejoin:miter;stroke-miterlimit:4;stroke-opacity:1;stroke-dasharray:none"
   inkscape:connector-curvature="0"
   sodipodi:nodetypes="cc" />





















































<rect
   width="213.2"
   height="157.67915"
   rx="4.473772"
   ry="6.6856003"
   x="-470.16666"
   y="-259.83749"
   transform="scale(1,-1)"
   id="rect3056"
   style="fill:none;stroke:#ff2a2a;stroke-width:1.60000002;stroke-miterlimit:4;stroke-opacity:1;stroke-dasharray:1.6, 1.6;stroke-dashoffset:0" />






















































<path
   inkscape:connector-curvature="0"
   style="fill:#000000;fill-opacity:1;fill-rule:evenodd;stroke:#000000;stroke-width:1.60000002;stroke-linecap:butt;stroke-linejoin:miter;stroke-miterlimit:4;stroke-opacity:1;stroke-dasharray:none"
   id="path3013"
   d="m -156.983,170.83 -6.402,-6.403 22.402,6.403 -22.402,6.398 6.402,-6.398 z" /><path
   sodipodi:nodetypes="cc"
   inkscape:connector-curvature="0"
   style="fill:none;stroke:#000000;stroke-width:1.60000002;stroke-linecap:butt;stroke-linejoin:miter;stroke-miterlimit:4;stroke-opacity:1;stroke-dasharray:none"
   id="path3015"
   d="m 34.788,-37.428 114.59389,0" /><path
   inkscape:connector-curvature="0"
   style="fill:#000000;fill-opacity:1;fill-rule:evenodd;stroke:#000000;stroke-width:1.60000002;stroke-linecap:butt;stroke-linejoin:miter;stroke-miterlimit:4;stroke-opacity:1;stroke-dasharray:none"
   id="path3017"
   d="m 143.041,-37.428 -6.402,-6.399 22.402,6.399 -22.402,6.402 6.402,-6.402 z" /><g
   id="g3027"
   transform="matrix(0,1,1,0,-401.6,218.39999)"><path
     inkscape:connector-curvature="0"
     style="fill:#000000;fill-opacity:1;fill-rule:evenodd;stroke:#000000;stroke-width:1.60000002;stroke-linecap:butt;stroke-linejoin:miter;stroke-miterlimit:4;stroke-opacity:1;stroke-dasharray:none"
     id="path3029"
     d="m -186.219,310.77 6.399,-6.403 -22.399,6.403 22.399,6.398 -6.399,-6.398 z" /></g><rect
   style="fill:none;stroke:#ff2a2a;stroke-width:1.60000002;stroke-miterlimit:4;stroke-opacity:1;stroke-dasharray:1.6, 1.6;stroke-dashoffset:0"
   id="rect3037"
   transform="scale(1,-1)"
   y="-51.837486"
   x="-162.96671"
   ry="6.6856003"
   rx="4.473772"
   height="157.67915"
   width="213.2" />






<path
   sodipodi:type="arc"
   style="fill:none;stroke:#000000;stroke-width:4.26177883;stroke-linecap:butt;stroke-linejoin:miter;stroke-miterlimit:4;stroke-opacity:1;stroke-dasharray:none;stroke-dashoffset:0"
   id="path3034"
   sodipodi:cx="441.95255"
   sodipodi:cy="177.81432"
   sodipodi:rx="26.91186"
   sodipodi:ry="26.91186"
   d="m 468.8644,177.81432 c 0,14.86301 -12.04885,26.91186 -26.91185,26.91186 -14.86301,0 -26.91186,-12.04885 -26.91186,-26.91186 0,-14.86301 12.04885,-26.91186 26.91186,-26.91186 14.863,0 26.91185,12.04885 26.91185,26.91186 z"
   transform="matrix(0.56314512,0,0,-0.56314512,-371.9192,271.35883)" /><path
   sodipodi:nodetypes="cc"
   inkscape:connector-curvature="0"
   style="fill:none;stroke:#000000;stroke-width:1.60000002;stroke-linecap:butt;stroke-linejoin:miter;stroke-miterlimit:4;stroke-opacity:1;stroke-dasharray:none;marker-end:url(#Arrow1Lend)"
   id="path3036"
   d="m -77.212,170.572 405.79389,0" /><path
   d="m -91.212718,28.28372 0,127.39389"
   id="path4113"
   style="fill:none;stroke:#000000;stroke-width:1.60000002;stroke-linecap:butt;stroke-linejoin:miter;stroke-miterlimit:4;stroke-opacity:1;stroke-dasharray:none"
   inkscape:connector-curvature="0"
   sodipodi:nodetypes="cc" />

<text
   transform="scale(1,-1)"
   sodipodi:linespacing="125%"
   id="text3048"
   y="13.6763"
   x="-54.894341"
   style="font-size:25.60000038px;font-style:normal;font-variant:normal;font-weight:normal;font-stretch:normal;text-align:center;line-height:125%;letter-spacing:0px;word-spacing:0px;text-anchor:middle;fill:#000000;fill-opacity:1;stroke:none;font-family:Arial;-inkscape-font-specification:Arial"
   xml:space="preserve"><tspan
     y="13.6763"
     x="-54.894341"
     id="tspan3050"
     sodipodi:role="line">Goods &amp;</tspan><tspan
     y="45.6763"
     x="-54.894341"
     sodipodi:role="line"
     id="tspan3083">Services</tspan><tspan
     y="77.6763"
     x="-54.894341"
     sodipodi:role="line"
     id="tspan3111">(1)</tspan></text>

















<text
   xml:space="preserve"
   style="font-size:25.60000038px;font-style:normal;font-variant:normal;font-weight:normal;font-stretch:normal;text-align:center;line-height:125%;letter-spacing:0px;word-spacing:0px;text-anchor:middle;fill:#000000;fill-opacity:1;stroke:none;font-family:Arial;-inkscape-font-specification:Arial"
   x="-362.09436"
   y="-178.3237"
   id="text3085"
   sodipodi:linespacing="125%"
   transform="scale(1,-1)"><tspan
     id="tspan3089"
     sodipodi:role="line"
     x="-362.09436"
     y="-178.3237">Energy</tspan><tspan
     sodipodi:role="line"
     x="-362.09436"
     y="-146.3237"
     id="tspan3115">(2)</tspan></text>




<text
   xml:space="preserve"
   style="font-size:25.60000038px;font-style:normal;font-variant:normal;font-weight:normal;font-stretch:normal;text-align:center;line-height:125%;letter-spacing:0px;word-spacing:0px;text-anchor:middle;fill:#000000;fill-opacity:1;stroke:none;font-family:Arial;-inkscape-font-specification:Arial"
   x="415.50565"
   y="-69.523712"
   id="text3119"
   sodipodi:linespacing="125%"
   transform="scale(1,-1)"><tspan
     id="tspan3123"
     sodipodi:role="line"
     x="415.50565"
     y="-69.523712">Society</tspan><tspan
     id="tspan3125"
     sodipodi:role="line"
     x="415.50565"
     y="-37.523712">(4)</tspan></text>




<path
   transform="matrix(0.56314512,0,0,-0.56314512,-71.1192,63.35883)"
   d="m 468.8644,177.81432 c 0,14.86301 -12.04885,26.91186 -26.91185,26.91186 -14.86301,0 -26.91186,-12.04885 -26.91186,-26.91186 0,-14.86301 12.04885,-26.91186 26.91186,-26.91186 14.863,0 26.91185,12.04885 26.91185,26.91186 z"
   sodipodi:ry="26.91186"
   sodipodi:rx="26.91186"
   sodipodi:cy="177.81432"
   sodipodi:cx="441.95255"
   id="path3129"
   style="fill:none;stroke:#000000;stroke-width:4.26177883;stroke-linecap:butt;stroke-linejoin:miter;stroke-miterlimit:4;stroke-opacity:1;stroke-dasharray:none;stroke-dashoffset:0"
   sodipodi:type="arc" /><path
   d="m 223.588,-37.428 104.99389,0"
   id="path3131"
   style="fill:none;stroke:#000000;stroke-width:1.60000002;stroke-linecap:butt;stroke-linejoin:miter;stroke-miterlimit:4;stroke-opacity:1;stroke-dasharray:none;marker-end:url(#Arrow1Lend)"
   inkscape:connector-curvature="0"
   sodipodi:nodetypes="cc" /><rect
   style="fill:none;stroke:#000000;stroke-width:1.60000002;stroke-linecap:butt;stroke-linejoin:miter;stroke-miterlimit:4;stroke-opacity:1;stroke-dasharray:none;stroke-dashoffset:0"
   id="rect4109"
   width="137.75447"
   height="1086.2437"
   x="241.73953"
   y="-466.66373"
   transform="matrix(0,-1,-1,0,0,0)"
   rx="24.934467"
   ry="27.614489" /><text
   transform="scale(1,-1)"
   sodipodi:linespacing="125%"
   id="text4115"
   y="313.41605"
   x="-76.595657"
   style="font-size:25.60000038px;font-style:normal;font-variant:normal;font-weight:normal;font-stretch:normal;text-align:center;line-height:125%;letter-spacing:0px;word-spacing:0px;text-anchor:middle;fill:#000000;fill-opacity:1;stroke:none;font-family:Arial;-inkscape-font-specification:Arial"
   xml:space="preserve"><tspan
     y="313.41605"
     x="-76.595657"
     sodipodi:role="line"
     id="tspan4117">Earth</tspan><tspan
     y="345.41605"
     x="-76.595657"
     sodipodi:role="line"
     id="tspan4119">(3)</tspan></text>




<path
   d="m 330.06314,-61.81217 0,260.3 85.42,48 85.417,-48 0,-260.047 -85.417,-48.125 z"
   id="path4124"
   style="fill:none;stroke:#000000;stroke-width:2.4000001;stroke-linecap:butt;stroke-linejoin:miter;stroke-miterlimit:4;stroke-opacity:1;stroke-dasharray:none"
   inkscape:connector-curvature="0"
   sodipodi:nodetypes="ccccccc" /><path
   style="fill:none;stroke:#000000;stroke-width:1.60000002;stroke-linecap:butt;stroke-linejoin:miter;stroke-opacity:1;marker-end:url(#Arrow1Lend)"
   d="m -122.47482,186.51162 0,129.81014 -218.66236,0 0,-91.54423"
   id="path4774"
   inkscape:connector-curvature="0"
   sodipodi:nodetypes="cccc" /><path
   inkscape:connector-curvature="0"
   id="path4963"
   d="m 178.32518,-23.08838 0,131.41014 -202.66236,0 0,-91.54423"
   style="fill:none;stroke:#000000;stroke-width:1.60000002;stroke-linecap:butt;stroke-linejoin:miter;stroke-opacity:1;marker-end:url(#Arrow1Lend)"
   sodipodi:nodetypes="cccc" />
<text
   xml:space="preserve"
   style="font-size:25.60000038px;font-style:normal;font-variant:normal;font-weight:normal;font-stretch:normal;text-align:end;line-height:125%;letter-spacing:0px;word-spacing:0px;text-anchor:end;fill:#000000;fill-opacity:1;stroke:none;font-family:Arial;-inkscape-font-specification:Arial"
   x="-201.56213"
   y="-182.30022"
   id="text4981"
   sodipodi:linespacing="125%"
   transform="scale(1,-1)"><tspan
     sodipodi:role="line"
     id="tspan4983"
     x="-201.56213"
     y="-182.30022">E<tspan
   style="font-size:52.00042725%;baseline-shift:sub"
   id="tspan4985">2</tspan></tspan></text>




<text
   transform="scale(1,-1)"
   sodipodi:linespacing="125%"
   id="text4987"
   y="24.815277"
   x="102.43787"
   style="font-size:25.60000038px;font-style:normal;font-variant:normal;font-weight:normal;font-stretch:normal;text-align:end;line-height:125%;letter-spacing:0px;word-spacing:0px;text-anchor:end;fill:#000000;fill-opacity:1;stroke:none;font-family:Arial;-inkscape-font-specification:Arial"
   xml:space="preserve"><tspan
     y="24.815277"
     x="102.43787"
     id="tspan4989"
     sodipodi:role="line">E<tspan
   id="tspan4991"
   style="font-size:52.00042725%;baseline-shift:sub">1</tspan></tspan></text>




<text
   transform="scale(1,-1)"
   sodipodi:linespacing="125%"
   id="text4993"
   y="-227.98471"
   x="-84.762138"
   style="font-size:25.60000038px;font-style:normal;font-variant:normal;font-weight:normal;font-stretch:normal;text-align:end;line-height:125%;letter-spacing:0px;word-spacing:0px;text-anchor:end;fill:#000000;fill-opacity:1;stroke:none;font-family:Arial;-inkscape-font-specification:Arial"
   xml:space="preserve"><tspan
     y="-227.98471"
     x="-84.762138"
     id="tspan4995"
     sodipodi:role="line">E<tspan
   id="tspan4997"
   style="font-size:52.00042725%;baseline-shift:sub">22</tspan></tspan></text>




<text
   xml:space="preserve"
   style="font-size:25.60000038px;font-style:normal;font-variant:normal;font-weight:normal;font-stretch:normal;text-align:end;line-height:125%;letter-spacing:0px;word-spacing:0px;text-anchor:end;fill:#000000;fill-opacity:1;stroke:none;font-family:Arial;-inkscape-font-specification:Arial"
   x="251.23785"
   y="-51.984718"
   id="text4999"
   sodipodi:linespacing="125%"
   transform="scale(1,-1)"><tspan
     sodipodi:role="line"
     id="tspan5001"
     x="251.23785"
     y="-51.984718">E<tspan
   style="font-size:52.00042725%;baseline-shift:sub"
   id="tspan5003">12</tspan></tspan></text>




<text
   transform="scale(1,-1)"
   sodipodi:linespacing="125%"
   id="text5005"
   y="-115.98474"
   x="83.237839"
   style="font-size:25.60000038px;font-style:normal;font-variant:normal;font-weight:normal;font-stretch:normal;text-align:end;line-height:125%;letter-spacing:0px;word-spacing:0px;text-anchor:end;fill:#000000;fill-opacity:1;stroke:none;font-family:Arial;-inkscape-font-specification:Arial"
   xml:space="preserve"><tspan
     y="-115.98474"
     x="83.237839"
     id="tspan5007"
     sodipodi:role="line">E<tspan
   id="tspan5009"
   style="font-size:52.00042725%;baseline-shift:sub">11</tspan></tspan></text>




<text
   xml:space="preserve"
   style="font-size:25.60000038px;font-style:normal;font-variant:normal;font-weight:normal;font-stretch:normal;text-align:end;line-height:125%;letter-spacing:0px;word-spacing:0px;text-anchor:end;fill:#000000;fill-opacity:1;stroke:none;font-family:Arial;-inkscape-font-specification:Arial"
   x="289.63788"
   y="-182.30022"
   id="text5011"
   sodipodi:linespacing="125%"
   transform="scale(1,-1)"><tspan
     sodipodi:role="line"
     id="tspan5013"
     x="289.63788"
     y="-182.30022">E<tspan
   style="font-size:52.00042725%;baseline-shift:sub"
   id="tspan5015">24</tspan></tspan></text>




<text
   transform="scale(1,-1)"
   sodipodi:linespacing="125%"
   id="text5017"
   y="24.815277"
   x="289.63788"
   style="font-size:25.60000038px;font-style:normal;font-variant:normal;font-weight:normal;font-stretch:normal;text-align:end;line-height:125%;letter-spacing:0px;word-spacing:0px;text-anchor:end;fill:#000000;fill-opacity:1;stroke:none;font-family:Arial;-inkscape-font-specification:Arial"
   xml:space="preserve"><tspan
     y="24.815277"
     x="289.63788"
     id="tspan5019"
     sodipodi:role="line">E<tspan
   id="tspan5021"
   style="font-size:52.00042725%;baseline-shift:sub">14</tspan></tspan></text>




<text
   transform="scale(1,-1)"
   sodipodi:linespacing="125%"
   id="text5023"
   y="-182.30022"
   x="1.6378784"
   style="font-size:25.60000038px;font-style:normal;font-variant:normal;font-weight:normal;font-stretch:normal;text-align:end;line-height:125%;letter-spacing:0px;word-spacing:0px;text-anchor:end;fill:#000000;fill-opacity:1;stroke:none;font-family:Arial;-inkscape-font-specification:Arial"
   xml:space="preserve"><tspan
     y="-182.30022"
     x="1.6378798"
     id="tspan5025"
     sodipodi:role="line">E<tspan
   id="tspan5027"
   style="font-size:52.00042725%;baseline-shift:sub">24</tspan></tspan></text>




<text
   xml:space="preserve"
   style="font-size:25.60000038px;font-style:normal;font-variant:normal;font-weight:normal;font-stretch:normal;text-align:end;line-height:125%;letter-spacing:0px;word-spacing:0px;text-anchor:end;fill:#000000;fill-opacity:1;stroke:none;font-family:Arial;-inkscape-font-specification:Arial"
   x="-302.36218"
   y="-279.18472"
   id="text5029"
   sodipodi:linespacing="125%"
   transform="scale(1,-1)"><tspan
     sodipodi:role="line"
     id="tspan5031"
     x="-302.36218"
     y="-279.18472">E<tspan
   style="font-size:52.00042725%;baseline-shift:sub"
   id="tspan5033">22</tspan></tspan></text>




<text
   transform="scale(1,-1)"
   sodipodi:linespacing="125%"
   id="text5035"
   y="-279.18472"
   x="-366.36212"
   style="font-size:25.60000038px;font-style:normal;font-variant:normal;font-weight:normal;font-stretch:normal;text-align:end;line-height:125%;letter-spacing:0px;word-spacing:0px;text-anchor:end;fill:#000000;fill-opacity:1;stroke:none;font-family:Arial;-inkscape-font-specification:Arial"
   xml:space="preserve"><tspan
     y="-279.18472"
     x="-366.36212"
     id="tspan5037"
     sodipodi:role="line">E<tspan
   id="tspan5039"
   style="font-size:52.00042725%;baseline-shift:sub">12</tspan></tspan></text>




<text
   transform="scale(1,-1)"
   sodipodi:linespacing="125%"
   id="text5041"
   y="-90.38472"
   x="-99.162178"
   style="font-size:25.60000038px;font-style:normal;font-variant:normal;font-weight:normal;font-stretch:normal;text-align:end;line-height:125%;letter-spacing:0px;word-spacing:0px;text-anchor:end;fill:#000000;fill-opacity:1;stroke:none;font-family:Arial;-inkscape-font-specification:Arial"
   xml:space="preserve"><tspan
     y="-90.38472"
     x="-99.162178"
     id="tspan5043"
     sodipodi:role="line">E<tspan
   id="tspan5045"
   style="font-size:52.00042725%;baseline-shift:sub">21</tspan></tspan></text>











<path
   transform="matrix(0.07404241,0,0,-0.1031305,-375.42581,329.09831)"
   d="m -155.14324,250.41866 c 0,10.7104 -12.09348,19.3929 -27.01155,19.3929 -14.91806,0 -27.01154,-8.6825 -27.01154,-19.3929 0,-10.71041 12.09348,-19.39291 27.01154,-19.39291 14.91807,0 27.01155,8.6825 27.01155,19.39291 z"
   sodipodi:ry="19.392904"
   sodipodi:rx="27.011545"
   sodipodi:cy="250.41866"
   sodipodi:cx="-182.15479"
   id="path3103"
   style="fill:#000000;fill-opacity:1;stroke:none"
   sodipodi:type="arc" /><path
   sodipodi:type="arc"
   style="fill:#000000;fill-opacity:1;stroke:none"
   id="path3105"
   sodipodi:cx="-182.15479"
   sodipodi:cy="250.41866"
   sodipodi:rx="27.011545"
   sodipodi:ry="19.392904"
   d="m -155.14324,250.41866 c 0,10.7104 -12.09348,19.3929 -27.01155,19.3929 -14.91806,0 -27.01154,-8.6825 -27.01154,-19.3929 0,-10.71041 12.09348,-19.39291 27.01154,-19.39291 14.91807,0 27.01155,8.6825 27.01155,19.39291 z"
   transform="matrix(0.07404241,0,0,-0.1031305,-311.42581,329.09831)" /><path
   transform="matrix(0.07404241,0,0,-0.1031305,280.57419,26.69831)"
   d="m -155.14324,250.41866 c 0,10.7104 -12.09348,19.3929 -27.01155,19.3929 -14.91806,0 -27.01154,-8.6825 -27.01154,-19.3929 0,-10.71041 12.09348,-19.39291 27.01154,-19.39291 14.91807,0 27.01155,8.6825 27.01155,19.39291 z"
   sodipodi:ry="19.392904"
   sodipodi:rx="27.011545"
   sodipodi:cy="250.41866"
   sodipodi:cx="-182.15479"
   id="path3119"
   style="fill:#000000;fill-opacity:1;stroke:none"
   sodipodi:type="arc" /><path
   sodipodi:type="arc"
   style="fill:#000000;fill-opacity:1;stroke:none"
   id="path3121"
   sodipodi:cx="-182.15479"
   sodipodi:cy="250.41866"
   sodipodi:rx="27.011545"
   sodipodi:ry="19.392904"
   d="m -155.14324,250.41866 c 0,10.7104 -12.09348,19.3929 -27.01155,19.3929 -14.91806,0 -27.01154,-8.6825 -27.01154,-19.3929 0,-10.71041 12.09348,-19.39291 27.01154,-19.39291 14.91807,0 27.01155,8.6825 27.01155,19.39291 z"
   transform="matrix(0.07404241,0,0,-0.1031305,101.37419,26.69831)" /><path
   sodipodi:type="arc"
   style="fill:#000000;fill-opacity:1;stroke:none"
   id="path3125"
   sodipodi:cx="-182.15479"
   sodipodi:cy="250.41866"
   sodipodi:rx="27.011545"
   sodipodi:ry="19.392904"
   d="m -155.14324,250.41866 c 0,10.7104 -12.09348,19.3929 -27.01155,19.3929 -14.91806,0 -27.01154,-8.6825 -27.01154,-19.3929 0,-10.71041 12.09348,-19.39291 27.01154,-19.39291 14.91807,0 27.01155,8.6825 27.01155,19.39291 z"
   transform="matrix(0.07404241,0,0,-0.1031305,-204.22581,231.49831)" /><path
   transform="matrix(0.07404241,0,0,-0.1031305,-7.42581,231.49831)"
   d="m -155.14324,250.41866 c 0,10.7104 -12.09348,19.3929 -27.01155,19.3929 -14.91806,0 -27.01154,-8.6825 -27.01154,-19.3929 0,-10.71041 12.09348,-19.39291 27.01154,-19.39291 14.91807,0 27.01155,8.6825 27.01155,19.39291 z"
   sodipodi:ry="19.392904"
   sodipodi:rx="27.011545"
   sodipodi:cy="250.41866"
   sodipodi:cx="-182.15479"
   id="path3127"
   style="fill:#000000;fill-opacity:1;stroke:none"
   sodipodi:type="arc" /><path
   sodipodi:type="arc"
   style="fill:#000000;fill-opacity:1;stroke:none"
   id="path3130"
   sodipodi:cx="-182.15479"
   sodipodi:cy="250.41866"
   sodipodi:rx="27.011545"
   sodipodi:ry="19.392904"
   d="m -155.14324,250.41866 c 0,10.7104 -12.09348,19.3929 -27.01155,19.3929 -14.91806,0 -27.01154,-8.6825 -27.01154,-19.3929 0,-10.71041 12.09348,-19.39291 27.01154,-19.39291 14.91807,0 27.01155,8.6825 27.01155,19.39291 z"
   transform="matrix(0.07404241,0,0,-0.1031305,280.57419,231.49831)" /><path
   transform="matrix(0.07404241,0,0,-0.1031305,-93.82581,279.49831)"
   d="m -155.14324,250.41866 c 0,10.7104 -12.09348,19.3929 -27.01155,19.3929 -14.91806,0 -27.01154,-8.6825 -27.01154,-19.3929 0,-10.71041 12.09348,-19.39291 27.01154,-19.39291 14.91807,0 27.01155,8.6825 27.01155,19.39291 z"
   sodipodi:ry="19.392904"
   sodipodi:rx="27.011545"
   sodipodi:cy="250.41866"
   sodipodi:cx="-182.15479"
   id="path3132"
   style="fill:#000000;fill-opacity:1;stroke:none"
   sodipodi:type="arc" /><path
   transform="matrix(0.07404241,0,0,-0.1031305,-108.22581,141.89831)"
   d="m -155.14324,250.41866 c 0,10.7104 -12.09348,19.3929 -27.01155,19.3929 -14.91806,0 -27.01154,-8.6825 -27.01154,-19.3929 0,-10.71041 12.09348,-19.39291 27.01154,-19.39291 14.91807,0 27.01155,8.6825 27.01155,19.39291 z"
   sodipodi:ry="19.392904"
   sodipodi:rx="27.011545"
   sodipodi:cy="250.41866"
   sodipodi:cx="-182.15479"
   id="path3134"
   style="fill:#000000;fill-opacity:1;stroke:none"
   sodipodi:type="arc" /><path
   sodipodi:type="arc"
   style="fill:#000000;fill-opacity:1;stroke:none"
   id="path3136"
   sodipodi:cx="-182.15479"
   sodipodi:cy="250.41866"
   sodipodi:rx="27.011545"
   sodipodi:ry="19.392904"
   d="m -155.14324,250.41866 c 0,10.7104 -12.09348,19.3929 -27.01155,19.3929 -14.91806,0 -27.01154,-8.6825 -27.01154,-19.3929 0,-10.71041 12.09348,-19.39291 27.01154,-19.39291 14.91807,0 27.01155,8.6825 27.01155,19.39291 z"
   transform="matrix(0.07404241,0,0,-0.1031305,75.77419,167.49831)" /><path
   transform="matrix(0.07404241,0,0,-0.1031305,242.17419,103.49831)"
   d="m -155.14324,250.41866 c 0,10.7104 -12.09348,19.3929 -27.01155,19.3929 -14.91806,0 -27.01154,-8.6825 -27.01154,-19.3929 0,-10.71041 12.09348,-19.39291 27.01154,-19.39291 14.91807,0 27.01155,8.6825 27.01155,19.39291 z"
   sodipodi:ry="19.392904"
   sodipodi:rx="27.011545"
   sodipodi:cy="250.41866"
   sodipodi:cx="-182.15479"
   id="path3138"
   style="fill:#000000;fill-opacity:1;stroke:none"
   sodipodi:type="arc" /><path
   transform="matrix(0.56314512,0,0,-0.56314512,-339.9192,271.35883)"
   d="m 468.8644,177.81432 c 0,14.86301 -12.04885,26.91186 -26.91185,26.91186 -14.86301,0 -26.91186,-12.04885 -26.91186,-26.91186 0,-14.86301 12.04885,-26.91186 26.91186,-26.91186 14.863,0 26.91185,12.04885 26.91185,26.91186 z"
   sodipodi:ry="26.91186"
   sodipodi:rx="26.91186"
   sodipodi:cy="177.81432"
   sodipodi:cx="441.95255"
   id="path3075"
   style="fill:none;stroke:#000000;stroke-width:4.26177883;stroke-linecap:butt;stroke-linejoin:miter;stroke-miterlimit:4;stroke-opacity:1;stroke-dasharray:none;stroke-dashoffset:0"
   sodipodi:type="arc" /><path
   sodipodi:type="arc"
   style="fill:none;stroke:#000000;stroke-width:4.26177883;stroke-linecap:butt;stroke-linejoin:miter;stroke-miterlimit:4;stroke-opacity:1;stroke-dasharray:none;stroke-dashoffset:0"
   id="path3077"
   sodipodi:cx="441.95255"
   sodipodi:cy="177.81432"
   sodipodi:rx="26.91186"
   sodipodi:ry="26.91186"
   d="m 468.8644,177.81432 c 0,14.86301 -12.04885,26.91186 -26.91185,26.91186 -14.86301,0 -26.91186,-12.04885 -26.91186,-26.91186 0,-14.86301 12.04885,-26.91186 26.91186,-26.91186 14.863,0 26.91185,12.04885 26.91185,26.91186 z"
   transform="matrix(0.56314512,0,0,-0.56314512,-39.1192,63.35883)" /><path
   sodipodi:nodetypes="ccc"
   inkscape:connector-curvature="0"
   id="path3347"
   d="m -460.07482,170.72176 -93.86236,0 0,-459.54423"
   style="fill:none;stroke:#000000;stroke-width:1.60000002;stroke-linecap:butt;stroke-linejoin:miter;stroke-opacity:1;marker-start:url(#Arrow1Lstart);marker-end:none" /><path
   sodipodi:nodetypes="ccc"
   inkscape:connector-curvature="0"
   id="path3349"
   d="m -151.27482,-37.27824 -338.66236,0 0,-251.54423"
   style="fill:none;stroke:#000000;stroke-width:1.60000002;stroke-linecap:butt;stroke-linejoin:miter;stroke-opacity:1;marker-start:url(#Arrow1Lstart);marker-end:none" /><path
   sodipodi:nodetypes="cc"
   inkscape:connector-curvature="0"
   style="fill:none;stroke:#000000;stroke-width:1.60000002;stroke-linecap:butt;stroke-linejoin:miter;stroke-miterlimit:4;stroke-opacity:1;stroke-dasharray:6.4, 6.4;stroke-dashoffset:0;marker-end:url(#Arrow1Lend)"
   id="path4780"
   d="m 415.28494,-109.73106 0,-128.99388" /><text
   transform="scale(1,-1)"
   sodipodi:linespacing="125%"
   id="text4782"
   y="197.61526"
   x="-452.76221"
   style="font-size:25.60000038px;font-style:normal;font-variant:normal;font-weight:normal;font-stretch:normal;text-align:end;line-height:125%;letter-spacing:0px;word-spacing:0px;text-anchor:end;fill:#000000;fill-opacity:1;stroke:none;font-family:Arial;-inkscape-font-specification:Arial"
   xml:space="preserve"><tspan
     y="197.61526"
     x="-452.76221"
     id="tspan4784"
     sodipodi:role="line">E<tspan
   id="tspan4786"
   style="font-size:52.00042725%;baseline-shift:sub">31</tspan></tspan></text>


<text
   xml:space="preserve"
   style="font-size:25.60000038px;font-style:normal;font-variant:normal;font-weight:normal;font-stretch:normal;text-align:end;line-height:125%;letter-spacing:0px;word-spacing:0px;text-anchor:end;fill:#000000;fill-opacity:1;stroke:none;font-family:Arial;-inkscape-font-specification:Arial"
   x="-516.76208"
   y="197.61526"
   id="text4788"
   sodipodi:linespacing="125%"
   transform="scale(1,-1)"><tspan
     sodipodi:role="line"
     id="tspan4790"
     x="-516.76208"
     y="197.61526">E<tspan
   style="font-size:52.00042725%;baseline-shift:sub"
   id="tspan4792">32</tspan></tspan></text>


<path
   sodipodi:type="arc"
   style="fill:#000000;fill-opacity:1;stroke:none"
   id="path4794"
   sodipodi:cx="-182.15479"
   sodipodi:cy="250.41866"
   sodipodi:rx="27.011545"
   sodipodi:ry="19.392904"
   d="m -155.14324,250.41866 a 27.011545,19.392904 0 1 1 -54.02309,0 27.011545,19.392904 0 1 1 54.02309,0 z"
   transform="matrix(0.07404241,0,0,-0.1031305,-525.82581,-147.70169)" /><path
   transform="matrix(0.07404241,0,0,-0.1031305,-461.82581,-147.70169)"
   d="m -155.14324,250.41866 a 27.011545,19.392904 0 1 1 -54.02309,0 27.011545,19.392904 0 1 1 54.02309,0 z"
   sodipodi:ry="19.392904"
   sodipodi:rx="27.011545"
   sodipodi:cy="250.41866"
   sodipodi:cx="-182.15479"
   id="path4796"
   style="fill:#000000;fill-opacity:1;stroke:none"
   sodipodi:type="arc" /><text
   xml:space="preserve"
   style="font-size:25.60000038px;font-style:normal;font-variant:normal;font-weight:normal;font-stretch:normal;text-align:end;line-height:125%;letter-spacing:0px;word-spacing:0px;text-anchor:end;fill:#000000;fill-opacity:1;stroke:none;font-family:Arial;-inkscape-font-specification:Arial"
   x="454.4379"
   y="178.41531"
   id="text4798"
   sodipodi:linespacing="125%"
   transform="scale(1,-1)"><tspan
     sodipodi:role="line"
     id="tspan4800"
     x="454.4379"
     y="178.41531">Q<tspan
   style="font-size:52.00042725%;baseline-shift:sub"
   id="tspan4802">43</tspan></tspan></text>


<path
   sodipodi:type="arc"
   style="fill:#000000;fill-opacity:1;stroke:none"
   id="path4804"
   sodipodi:cx="-182.15479"
   sodipodi:cy="250.41866"
   sodipodi:rx="27.011545"
   sodipodi:ry="19.392904"
   d="m -155.14324,250.41866 c 0,10.7104 -12.09348,19.3929 -27.01155,19.3929 -14.91806,0 -27.01154,-8.6825 -27.01154,-19.3929 0,-10.71041 12.09348,-19.39291 27.01154,-19.39291 14.91807,0 27.01155,8.6825 27.01155,19.39291 z"
   transform="matrix(0.07404241,0,0,-0.1031305,445.37419,-126.90169)" /><text
   xml:space="preserve"
   style="font-size:25.60000038px;font-style:normal;font-variant:normal;font-weight:normal;font-stretch:normal;text-align:end;line-height:125%;letter-spacing:0px;word-spacing:0px;text-anchor:end;fill:#000000;fill-opacity:1;stroke:none;font-family:Arial;-inkscape-font-specification:Arial"
   x="-187.16217"
   y="26.415258"
   id="text4806"
   sodipodi:linespacing="125%"
   transform="scale(1,-1)"><tspan
     sodipodi:role="line"
     id="tspan4808"
     x="-187.16217"
     y="26.415258">E<tspan
   style="font-size:52.00042725%;baseline-shift:sub"
   id="tspan4810">31</tspan></tspan></text>


<path
   sodipodi:type="arc"
   style="fill:#000000;fill-opacity:1;stroke:none"
   id="path4812"
   sodipodi:cx="-182.15479"
   sodipodi:cy="250.41866"
   sodipodi:rx="27.011545"
   sodipodi:ry="19.392904"
   d="m -155.14324,250.41866 c 0,10.7104 -12.09348,19.3929 -27.01155,19.3929 -14.91806,0 -27.01154,-8.6825 -27.01154,-19.3929 0,-10.71041 12.09348,-19.39291 27.01154,-19.39291 14.91807,0 27.01155,8.6825 27.01155,19.39291 z"
   transform="matrix(0.07404241,0,0,-0.1031305,-196.22581,23.49831)" /><text
   transform="scale(1,-1)"
   sodipodi:linespacing="125%"
   id="text4814"
   y="-181.58472"
   x="-494.36206"
   style="font-size:25.60000038px;font-style:normal;font-variant:normal;font-weight:normal;font-stretch:normal;text-align:end;line-height:125%;letter-spacing:0px;word-spacing:0px;text-anchor:end;fill:#000000;fill-opacity:1;stroke:none;font-family:Arial;-inkscape-font-specification:Arial"
   xml:space="preserve"><tspan
     y="-181.58472"
     x="-494.36206"
     id="tspan4816"
     sodipodi:role="line">E<tspan
   id="tspan4818"
   style="font-size:52.00042725%;baseline-shift:sub">32</tspan></tspan></text>


<path
   transform="matrix(0.07404241,0,0,-0.1031305,-503.42581,231.49831)"
   d="m -155.14324,250.41866 c 0,10.7104 -12.09348,19.3929 -27.01155,19.3929 -14.91806,0 -27.01154,-8.6825 -27.01154,-19.3929 0,-10.71041 12.09348,-19.39291 27.01154,-19.39291 14.91807,0 27.01155,8.6825 27.01155,19.39291 z"
   sodipodi:ry="19.392904"
   sodipodi:rx="27.011545"
   sodipodi:cy="250.41866"
   sodipodi:cx="-182.15479"
   id="path4820"
   style="fill:#000000;fill-opacity:1;stroke:none"
   sodipodi:type="arc" /><path
   d="m -59.91506,-88.93106 0,-149.79388"
   id="path4841"
   style="fill:none;stroke:#000000;stroke-width:1.60000002;stroke-linecap:butt;stroke-linejoin:miter;stroke-miterlimit:4;stroke-opacity:1;stroke-dasharray:6.4, 6.4;stroke-dashoffset:0;marker-end:url(#Arrow1Lend)"
   inkscape:connector-curvature="0"
   sodipodi:nodetypes="cc" /><text
   transform="scale(1,-1)"
   sodipodi:linespacing="125%"
   id="text4843"
   y="178.41531"
   x="-20.762108"
   style="font-size:25.60000038px;font-style:normal;font-variant:normal;font-weight:normal;font-stretch:normal;text-align:end;line-height:125%;letter-spacing:0px;word-spacing:0px;text-anchor:end;fill:#000000;fill-opacity:1;stroke:none;font-family:Arial;-inkscape-font-specification:Arial"
   xml:space="preserve"><tspan
     y="178.41531"
     x="-20.762108"
     id="tspan4845"
     sodipodi:role="line">Q<tspan
   id="tspan4847"
   style="font-size:52.00042725%;baseline-shift:sub">13</tspan></tspan></text>


<path
   transform="matrix(0.07404241,0,0,-0.1031305,-29.82581,-126.90169)"
   d="m -155.14324,250.41866 c 0,10.7104 -12.09348,19.3929 -27.01155,19.3929 -14.91806,0 -27.01154,-8.6825 -27.01154,-19.3929 0,-10.71041 12.09348,-19.39291 27.01154,-19.39291 14.91807,0 27.01155,8.6825 27.01155,19.39291 z"
   sodipodi:ry="19.392904"
   sodipodi:rx="27.011545"
   sodipodi:cy="250.41866"
   sodipodi:cx="-182.15479"
   id="path4849"
   style="fill:#000000;fill-opacity:1;stroke:none"
   sodipodi:type="arc" /><text
   xml:space="preserve"
   style="font-size:25.60000038px;font-style:normal;font-variant:normal;font-weight:normal;font-stretch:normal;text-align:end;line-height:125%;letter-spacing:0px;word-spacing:0px;text-anchor:end;fill:#000000;fill-opacity:1;stroke:none;font-family:Arial;-inkscape-font-specification:Arial"
   x="-326.36212"
   y="178.41531"
   id="text4853"
   sodipodi:linespacing="125%"
   transform="scale(1,-1)"><tspan
     sodipodi:role="line"
     id="tspan4855"
     x="-326.36212"
     y="178.41531">Q<tspan
   style="font-size:52.00042725%;baseline-shift:sub"
   id="tspan4857">23</tspan></tspan></text>


<path
   sodipodi:type="arc"
   style="fill:#000000;fill-opacity:1;stroke:none"
   id="path4859"
   sodipodi:cx="-182.15479"
   sodipodi:cy="250.41866"
   sodipodi:rx="27.011545"
   sodipodi:ry="19.392904"
   d="m -155.14324,250.41866 c 0,10.7104 -12.09348,19.3929 -27.01155,19.3929 -14.91806,0 -27.01154,-8.6825 -27.01154,-19.3929 0,-10.71041 12.09348,-19.39291 27.01154,-19.39291 14.91807,0 27.01155,8.6825 27.01155,19.39291 z"
   transform="matrix(0.07404241,0,0,-0.1031305,-335.42581,-126.90169)" /><path
   sodipodi:nodetypes="cczccc"
   inkscape:connector-curvature="0"
   style="fill:none;stroke:#000000;stroke-width:2.4000001;stroke-linecap:butt;stroke-linejoin:miter;stroke-miterlimit:4;stroke-opacity:1;stroke-dasharray:none"
   id="path5014"
   d="m -149.923,14.392 137.1,0 c 0,0 48.00026,-0.20927 48,-51.82 -2.6e-4,-51.61073 -48,-51.817 -48,-51.817 l -136.847,0 z" /><rect
   width="1122.0914"
   height="180.73129"
   rx="23.545877"
   ry="7.6630116"
   x="-636.8017"
   y="220.16251"
   transform="scale(1,-1)"
   id="rect4745"
   style="fill:none;stroke:#ff2a2a;stroke-width:1.60000002;stroke-miterlimit:4;stroke-opacity:1;stroke-dasharray:3.92979631, 3.92979631;stroke-dashoffset:0" /><rect
   width="213.2"
   height="382.32895"
   rx="4.473772"
   ry="16.210758"
   x="309.03326"
   y="-260.48727"
   transform="scale(1,-1)"
   id="rect4747"
   style="fill:none;stroke:#ff2a2a;stroke-width:1.60000002;stroke-miterlimit:4;stroke-opacity:1;stroke-dasharray:2.49144574, 2.49144574;stroke-dashoffset:0" /></g></g></svg>